<?xml version="1.0" encoding="UTF-8"?>
<svg version="1.1" xmlns="http://www.w3.org/2000/svg" width="2220" height="582">
<path d="M0 0 C4.29 0 8.58 0 13 0 C13 74.25 13 148.5 13 225 C23.89 225 34.78 225 46 225 C46 197.94 46 170.88 46 143 C70 142.6875 70 142.6875 77.46875 142.61206055 C98.60986071 142.31316804 117.89534282 140.85113153 133.88671875 125.3046875 C148.38232935 109.49616577 149.79951304 89.25278219 149.14355469 68.82714844 C148.38114289 53.81230388 143.04437905 40.07389957 132.51171875 29.18359375 C117.50529171 16.13757086 98.97022123 13.76607204 79.82421875 13.5859375 C78.67747681 13.56829346 77.53073486 13.55064941 76.34924316 13.5324707 C72.12879596 13.47014018 67.90812939 13.42344832 63.6875 13.375 C54.220625 13.25125 44.75375 13.1275 35 13 C35 40.72 35 68.44 35 97 C42.54875 96.87625 50.0975 96.7525 57.875 96.625 C60.23769043 96.59100098 62.60038086 96.55700195 65.03466797 96.52197266 C66.93718791 96.48672031 68.83969554 96.45079403 70.7421875 96.4140625 C71.70584229 96.40270264 72.66949707 96.39134277 73.66235352 96.37963867 C82.27252221 96.19839495 91.2597345 95.9182819 98 90 C102.24021755 84.48771719 101.60777493 77.62643497 101 71 C99.31431398 65.66199426 96.81825947 63.70663535 92 61 C88.3373024 60.36521395 88.3373024 60.36521395 84.4140625 60.390625 C83.71227875 60.37408875 83.010495 60.35755249 82.28744507 60.34051514 C80.06653878 60.2922931 77.84631572 60.27072393 75.625 60.25 C74.11064318 60.22181839 72.59631784 60.1918879 71.08203125 60.16015625 C67.38771454 60.08327562 63.69550717 60.04252597 60 60 C60 68.91 60 77.82 60 87 C55.38 87.33 50.76 87.66 46 88 C46 74.47 46 60.94 46 47 C52.22601089 46.9308221 58.45066766 46.87118018 64.67675781 46.83520508 C66.7910618 46.82019513 68.90533507 46.7997808 71.01953125 46.77368164 C74.07299421 46.73695367 77.12604257 46.72019526 80.1796875 46.70703125 C81.57874832 46.68380547 81.57874832 46.68380547 83.006073 46.66011047 C91.861025 46.6578815 100.22833284 48.37297362 107.2421875 54.06640625 C112.14295897 59.45725487 114.59319926 66.81318685 115 74 C115.0825 75.216875 115.165 76.43375 115.25 77.6875 C115.03672693 88.67106308 111.32401764 96.67598236 103.6875 104.3125 C96.40308226 108.88643672 88.01566045 110.13055354 79.53564453 110.11352539 C77.61812378 110.11334412 77.61812378 110.11334412 75.66186523 110.11315918 C74.31884715 110.10812517 72.97582955 110.10295868 71.6328125 110.09765625 C70.40038818 110.09664917 69.16796387 110.09564209 67.89819336 110.09460449 C63.3071194 110.08938384 58.71605874 110.07542257 54.125 110.0625 C43.85375 110.041875 33.5825 110.02125 23 110 C23 73.7 23 37.4 23 0 C41.005625 -0.12375 41.005625 -0.12375 59.375 -0.25 C65.00248291 -0.30462402 65.00248291 -0.30462402 70.74365234 -0.36035156 C75.4230957 -0.37841797 75.4230957 -0.37841797 77.63272095 -0.3817749 C79.13447858 -0.38780731 80.63622033 -0.40163792 82.1378479 -0.42230225 C104.45157819 -0.71327327 124.85707552 4.14279593 141.75 19.5 C142.4925 20.325 143.235 21.15 144 22 C144.52851562 22.52464844 145.05703125 23.04929688 145.6015625 23.58984375 C161.11584663 39.75340409 163.43161735 62.57511307 163.21875 83.8828125 C162.73834585 103.34518548 156.1786258 122.42483326 143 137 C124.27390272 153.89727623 103.90333877 156.50065565 79.625 156.1875 C72.81875 156.125625 66.0125 156.06375 59 156 C59 183.06 59 210.12 59 238 C39.53 238 20.06 238 0 238 C0 159.46 0 80.92 0 0 Z " fill="#6255E5" transform="translate(720,174)"/>
<path d="M0 0 C0.9583374 0.00523682 1.9166748 0.01047363 2.90405273 0.01586914 C4.45576172 0.02070313 4.45576172 0.02070313 6.03881836 0.02563477 C7.12743164 0.03401367 8.21604492 0.04239258 9.33764648 0.05102539 C10.97636719 0.05779297 10.97636719 0.05779297 12.64819336 0.06469727 C15.35723144 0.07652713 18.06616248 0.09300996 20.77514648 0.11352539 C21.1928833 1.06493408 21.61062012 2.01634277 22.04101562 2.99658203 C23.62538933 6.60378784 25.21204657 10.20998572 26.79931641 13.81591797 C27.47960508 15.3622031 28.15931416 16.90874339 28.83837891 18.45556641 C32.80865113 27.49814793 36.85360753 36.4962038 41.05322266 45.43457031 C44.06082365 51.84222586 46.97471708 58.2930671 49.90014648 64.73852539 C50.22184814 65.44662354 50.5435498 66.15472168 50.875 66.88427734 C55.90310958 77.95252838 60.8882336 89.03941419 65.85083008 100.13720703 C70.62812138 110.81048541 75.46298979 121.45716377 80.31225586 132.09790039 C84.77866083 141.9012624 89.20586419 151.72194076 93.62194824 161.54806519 C95.50498722 165.73716415 97.39015798 169.92530341 99.27514648 174.11352539 C100.02515706 175.7801873 100.77515705 177.44685397 101.52514648 179.11352539 C101.89639648 179.93852539 102.26764648 180.76352539 102.65014648 181.61352539 C106.02514648 189.11352539 106.02514648 189.11352539 107.15159607 191.61680603 C107.89670483 193.27256392 108.64187225 194.9282954 109.38710022 196.58399963 C111.33743432 200.91734874 113.28654926 205.25124084 115.23388672 209.5859375 C115.63772583 210.48445435 116.04156494 211.38297119 116.4576416 212.30871582 C117.22673883 214.01997097 117.99548005 215.73138618 118.76379395 217.44299316 C121.12386353 222.69287731 123.52725959 227.9184772 125.99780273 233.11743164 C126.77514648 235.11352539 126.77514648 235.11352539 126.77514648 238.11352539 C105.98514648 238.11352539 85.19514648 238.11352539 63.77514648 238.11352539 C55.90399264 222.3712177 55.90399264 222.3712177 53.31811523 216.32446289 C52.90726433 215.36958481 52.90726433 215.36958481 52.4881134 214.39541626 C51.64240086 212.42809248 50.80220767 210.45848093 49.96264648 208.48852539 C49.10414839 206.48334849 48.24445704 204.47869221 47.38362122 202.47451782 C46.61502147 200.68375016 45.8496419 198.89160138 45.08447266 197.09936523 C44.04968633 194.73959704 42.92747358 192.41817958 41.77514648 190.11352539 C-1.78485352 189.61852539 -1.78485352 189.61852539 -46.22485352 189.11352539 C-47.21485352 192.08352539 -48.20485352 195.05352539 -49.22485352 198.11352539 C-49.88099171 199.80178103 -50.55713852 201.48265252 -51.26782227 203.14868164 C-51.6190918 203.9769043 -51.97036133 204.80512695 -52.33227539 205.65844727 C-52.68870117 206.48924805 -53.04512695 207.32004883 -53.41235352 208.17602539 C-53.78038086 209.04163086 -54.1484082 209.90723633 -54.52758789 210.79907227 C-55.42357078 212.90521387 -56.32376663 215.00956241 -57.22485352 217.11352539 C-62.50485352 217.11352539 -67.78485352 217.11352539 -73.22485352 217.11352539 C-70.85187764 209.39708586 -67.72812589 202.05844267 -64.49926758 194.67211914 C-63.59050816 192.59213559 -62.68854438 190.50929777 -61.78735352 188.42602539 C-57.36601428 178.25468616 -57.36601428 178.25468616 -56.22485352 177.11352539 C-54.83341663 177.01809444 -53.43716984 176.99163964 -52.04246521 176.99327087 C-51.14077606 176.99189621 -50.23908691 176.99052155 -49.31007385 176.98910522 C-47.81467323 176.99449814 -47.81467323 176.99449814 -46.2890625 177 C-45.24528442 176.99985397 -44.20150635 176.99970795 -43.12609863 176.9995575 C-39.65769409 177.00025713 -36.18934249 177.00805186 -32.72094727 177.01586914 C-30.32341033 177.01773314 -27.92587302 177.01915713 -25.52833557 177.02015686 C-19.20389767 177.02398345 -12.87948257 177.03381493 -6.55505371 177.04486084 C-0.10709949 177.05507194 6.34085839 177.05965383 12.78881836 177.06469727 C25.45093749 177.07543708 38.11304078 177.0923242 50.77514648 177.11352539 C52.20238199 180.28301663 53.62929397 183.45265342 55.05615234 186.62231445 C55.45605125 187.51036774 55.85595016 188.39842102 56.26796722 189.31338501 C59.64694494 196.82021302 62.99938955 204.33849468 66.33764648 211.86352539 C68.13202148 215.90602539 69.92639648 219.94852539 71.77514648 224.11352539 C88.60514648 224.60852539 88.60514648 224.60852539 105.77514648 225.11352539 C96.63552517 204.26820031 87.48209091 183.42921547 78.27514648 162.61352539 C71.71278313 147.77670987 65.17587917 132.92899379 58.66040039 118.0715332 C53.28243293 105.80929667 47.88377356 93.55638771 42.46795654 81.31082153 C39.30987157 74.16945787 36.15475966 67.02677986 32.99938965 59.88421631 C31.73462982 57.02182861 30.46924629 54.15971709 29.20385742 51.29760742 C27.08588139 46.50602363 24.97144983 41.71288889 22.859375 36.91870117 C22.05924423 35.10390831 21.25799165 33.28960959 20.45556641 31.47583008 C19.34817696 28.97224811 18.24477145 26.4669473 17.14233398 23.96118164 C16.81413666 23.22162735 16.48593933 22.48207306 16.14779663 21.72010803 C14.75432135 18.54256957 13.55113798 15.49319012 12.77514648 12.11352539 C10.13514648 12.11352539 7.49514648 12.11352539 4.77514648 12.11352539 C4.51719299 12.93197937 4.51719299 12.93197937 4.25402832 13.76696777 C2.44686898 19.35987358 0.32116622 24.71551913 -2.06860352 30.08227539 C-2.43412827 30.91194824 -2.79965302 31.74162109 -3.17625427 32.59643555 C-4.35536268 35.27047633 -5.54005644 37.94200092 -6.72485352 40.61352539 C-7.5449841 42.47077609 -8.36472441 44.32819918 -9.18408203 46.18579102 C-10.79867771 49.84489185 -12.4152937 53.50308766 -14.03393555 57.16040039 C-16.7538356 63.30686912 -19.4585522 69.45995922 -22.16235352 75.61352539 C-24.72081912 81.42795739 -27.28123048 87.24153211 -29.84204102 93.05493164 C-35.19948315 105.22028109 -40.5365915 117.39432772 -45.85925293 129.57492065 C-50.16431283 139.42515868 -54.49443598 149.26405311 -58.8404541 159.09628296 C-65.02996897 173.09929234 -71.15432509 187.12884063 -77.22485352 201.18383789 C-80.5376274 208.83600049 -83.88263814 216.47417597 -87.22485352 224.11352539 C-74.68485352 224.11352539 -62.14485352 224.11352539 -49.22485352 224.11352539 C-45.97605412 215.93215114 -45.97605412 215.93215114 -42.73291016 207.74853516 C-42.32935303 206.735896 -41.9257959 205.72325684 -41.51000977 204.67993164 C-41.09630127 203.63780518 -40.68259277 202.59567871 -40.25634766 201.52197266 C-39.22485352 199.11352539 -39.22485352 199.11352539 -38.22485352 198.11352539 C-36.01617521 198.01919554 -33.8044383 197.99610108 -31.59375 198 C-30.90110046 197.99985397 -30.20845093 197.99970795 -29.49481201 197.9995575 C-27.19515906 198.00025665 -24.89558615 198.00804911 -22.59594727 198.01586914 C-21.00553939 198.01773331 -19.41513094 198.01915722 -17.82472229 198.02015686 C-13.63089422 198.0239821 -9.43710057 198.03381244 -5.24328613 198.04486084 C-0.96696437 198.05507482 3.30936293 198.05965445 7.58569336 198.06469727 C15.98219356 198.07543471 24.37866575 198.0925112 32.77514648 198.11352539 C33.61305438 199.90305724 34.44534045 201.69522234 35.27514648 203.48852539 C35.73920898 204.48625977 36.20327148 205.48399414 36.68139648 206.51196289 C37.77514648 209.11352539 37.77514648 209.11352539 37.77514648 211.11352539 C15.33514648 211.44352539 -7.10485352 211.77352539 -30.22485352 212.11352539 C-33.85485352 220.69352539 -37.48485352 229.27352539 -41.22485352 238.11352539 C-63.33485352 238.11352539 -85.44485352 238.11352539 -108.22485352 238.11352539 C-107.51953546 234.58693513 -107.02224227 232.3188747 -105.60180664 229.20727539 C-105.10447273 228.10718895 -105.10447273 228.10718895 -104.59709167 226.98487854 C-104.23706558 226.202332 -103.87703949 225.41978546 -103.50610352 224.61352539 C-103.13209915 223.78904404 -102.75809479 222.96456268 -102.37275696 222.11509705 C-101.57408684 220.35550258 -100.77314196 218.59693915 -99.97012329 216.83932495 C-97.89221488 212.29094359 -95.83038186 207.73528885 -93.76782227 203.17993164 C-93.36577072 202.29294083 -92.96371918 201.40595001 -92.54948425 200.49208069 C-89.30698646 193.32658161 -86.15557892 186.1284026 -83.12719727 178.86938477 C-80.9423037 173.66334413 -78.57755281 168.55265194 -76.17791748 163.44219971 C-72.38000859 155.33915486 -68.70248262 147.1817002 -65.01855469 139.02636719 C-63.79352071 136.31467686 -62.56691172 133.60370323 -61.34008789 130.89282227 C-54.30093389 115.32917035 -47.2759141 99.76228781 -40.64868164 84.01782227 C-38.25622902 78.38512769 -35.70955053 72.8337233 -33.10774231 67.29553223 C-29.08712239 58.71838629 -25.22796035 50.06826388 -21.34985352 41.42602539 C-20.59083899 39.73652731 -19.83172469 38.04707405 -19.07250977 36.35766602 C-18.69632507 35.52040985 -18.32014038 34.68315369 -17.93255615 33.82052612 C-17.17818038 32.14169086 -16.42366523 30.46291822 -15.66900635 28.78421021 C-13.66864989 24.33316063 -11.67342726 19.87989398 -9.68481445 15.42358398 C-9.27157928 14.49974411 -8.85834412 13.57590424 -8.43258667 12.62406921 C-7.63607899 10.84333033 -6.84135519 9.06179222 -6.0486145 7.27937317 C-5.69282318 6.48496323 -5.33703186 5.69055328 -4.97045898 4.87207031 C-4.65672333 4.16870041 -4.34298767 3.46533051 -4.01974487 2.74064636 C-2.85542608 0.35731748 -2.73926054 0.13977353 0 0 Z " fill="#6255E5" transform="translate(1271.224853515625,173.886474609375)"/>
<path d="M0 0 C0.9583374 0.00523682 1.9166748 0.01047363 2.90405273 0.01586914 C4.45576172 0.02070313 4.45576172 0.02070313 6.03881836 0.02563477 C7.12743164 0.03401367 8.21604492 0.04239258 9.33764648 0.05102539 C10.97636719 0.05779297 10.97636719 0.05779297 12.64819336 0.06469727 C15.35723144 0.07652713 18.06616248 0.09300996 20.77514648 0.11352539 C27.69572908 14.89304612 34.5267333 29.70190371 41.12084961 44.63061523 C45.02837059 53.46561646 49.01506327 62.26230392 53.02514648 71.05102539 C58.32394556 82.66654222 63.54468695 94.31423852 68.71264648 105.98852539 C75.74189324 121.8653689 82.93969606 137.66149237 90.17877197 153.44354248 C93.68800084 161.09772159 97.14678137 168.77415758 100.58666992 176.4597168 C101.98331131 179.57834701 103.38311756 182.69554903 104.78295898 185.81274414 C107.27154083 191.35532554 109.75499751 196.90017491 112.23562622 202.44631958 C113.95204014 206.28164913 115.6763573 210.11331711 117.40632629 213.94255066 C118.2599969 215.83386757 119.11119438 217.72627543 119.96142578 219.61914062 C121.026266 221.98909353 122.09528295 224.35717526 123.16894531 226.72314453 C123.64356201 227.78267334 124.11817871 228.84220215 124.60717773 229.93383789 C125.02717041 230.86470215 125.44716309 231.79556641 125.87988281 232.75463867 C126.77514648 235.11352539 126.77514648 235.11352539 126.77514648 238.11352539 C105.98514648 238.11352539 85.19514648 238.11352539 63.77514648 238.11352539 C59.27500321 228.47036123 54.79982493 218.82924824 50.46264648 209.11352539 C49.93864258 207.95208008 49.41463867 206.79063477 48.87475586 205.59399414 C48.37137695 204.46606445 47.86799805 203.33813477 47.34936523 202.17602539 C46.90165771 201.17700195 46.4539502 200.17797852 45.99267578 199.14868164 C44.68485097 195.88842937 43.74018244 192.49115122 42.77514648 189.11352539 C13.73514648 189.44352539 -15.30485352 189.77352539 -45.22485352 190.11352539 C-48.85485352 198.69352539 -52.48485352 207.27352539 -56.22485352 216.11352539 C-57.22485352 217.11352539 -57.22485352 217.11352539 -60.82250977 217.21118164 C-62.31082219 217.20450759 -63.79911784 217.19254722 -65.28735352 217.17602539 C-66.0459668 217.17151367 -66.80458008 217.16700195 -67.58618164 217.16235352 C-69.46577223 217.15053219 -71.3453225 217.13259617 -73.22485352 217.11352539 C-68.02412883 203.59164121 -62.10880182 190.35240908 -56.22485352 177.11352539 C-20.91485352 177.11352539 14.39514648 177.11352539 50.77514648 177.11352539 C53.08514648 182.39352539 55.39514648 187.67352539 57.77514648 193.11352539 C60.38039984 198.6964505 60.38039984 198.6964505 62.99780273 204.27368164 C66.05634182 210.82769396 68.89802413 217.47852895 71.77514648 224.11352539 C82.99514648 224.11352539 94.21514648 224.11352539 105.77514648 224.11352539 C103.93952148 220.02977539 102.10389648 215.94602539 100.21264648 211.73852539 C92.94029333 195.53231368 85.77017521 179.28157341 78.61566162 163.02307129 C77.36900375 160.19081958 76.12086966 157.35921891 74.87280273 154.52758789 C71.08600028 145.93258352 67.30611772 137.33465321 63.54858398 128.72680664 C57.33767447 114.50120408 51.09033514 100.29318743 44.77514648 86.11352539 C39.91344456 75.19655372 35.07270056 64.27106686 30.28521729 53.32131958 C29.41195334 51.32797614 28.53425315 49.33663965 27.65551758 47.34570312 C24.98654255 41.28388962 22.39013636 35.20730324 19.96264648 29.04321289 C19.5261377 27.96144775 19.08962891 26.87968262 18.63989258 25.76513672 C17.83940385 23.77053572 17.06429944 21.7654713 16.32055664 19.74902344 C15.31261965 17.26739876 14.4438899 15.20925333 12.77514648 13.11352539 C9.87192402 11.9828183 7.95907707 12.02973774 4.77514648 12.11352539 C4.64873779 12.84539062 4.5223291 13.57725586 4.39208984 14.33129883 C3.804467 16.9812988 3.01210608 19.15913116 1.90405273 21.62915039 C1.50444336 22.52811035 1.10483398 23.42707031 0.69311523 24.35327148 C0.24581055 25.34665527 -0.20149414 26.34003906 -0.66235352 27.36352539 C-1.67200734 29.63151458 -2.68107998 31.89976254 -3.68969727 34.16821289 C-3.96530487 34.78632843 -4.24091248 35.40444397 -4.52487183 36.04129028 C-7.91396298 43.64513507 -11.24867897 51.27279614 -14.58953857 58.8979187 C-20.9720123 73.46170055 -27.38579035 88.01142682 -33.82080078 102.55206299 C-40.01330019 116.54483745 -46.16823326 130.55115691 -52.22949219 144.60131836 C-59.01879745 160.31007474 -65.97221942 175.94687578 -72.89906311 191.59532166 C-77.69280075 202.42661707 -82.45916468 213.2698566 -87.22485352 224.11352539 C-74.68485352 224.11352539 -62.14485352 224.11352539 -49.22485352 224.11352539 C-45.59485352 215.53352539 -41.96485352 206.95352539 -38.22485352 198.11352539 C-14.79485352 198.11352539 8.63514648 198.11352539 32.77514648 198.11352539 C37.77514648 209.11352539 37.77514648 209.11352539 37.77514648 211.11352539 C15.33514648 211.11352539 -7.10485352 211.11352539 -30.22485352 211.11352539 C-31.21485352 214.08352539 -32.20485352 217.05352539 -33.22485352 220.11352539 C-35.86485352 226.05352539 -38.50485352 231.99352539 -41.22485352 238.11352539 C-63.33485352 238.11352539 -85.44485352 238.11352539 -108.22485352 238.11352539 C-106.44336974 232.76907405 -104.83435672 227.95505249 -102.54516602 222.91040039 C-102.0353418 221.78053711 -101.52551758 220.65067383 -101.00024414 219.48657227 C-100.45561523 218.2909668 -99.91098633 217.09536133 -99.34985352 215.86352539 C-98.77061081 214.58313745 -98.19184452 213.30253388 -97.61352539 212.02172852 C-96.41451264 209.36724819 -95.21347849 206.71369686 -94.01098633 204.06079102 C-91.22974722 197.92031478 -88.47905968 191.7661646 -85.72485352 185.61352539 C-84.63514065 183.18247713 -83.54529674 180.75148762 -82.45532227 178.32055664 C-80.35297558 173.63080339 -78.25144337 168.94068658 -76.15063477 164.25024414 C-69.85591854 150.19840288 -63.54532441 136.1538 -57.22485352 122.11352539 C-50.45307054 107.0702241 -43.69094143 92.02270756 -36.94995117 76.96557617 C-35.37755759 73.45381722 -33.80343274 69.94283585 -32.22920227 66.43190002 C-30.43522557 62.43032717 -28.64239243 58.42824248 -26.84985352 54.42602539 C-26.49414276 53.6319931 -26.13843201 52.83796082 -25.77194214 52.01986694 C-21.76881777 43.08090103 -17.78477121 34.1339989 -13.84204102 25.16821289 C-13.31726669 23.97535927 -13.31726669 23.97535927 -12.78189087 22.75840759 C-11.11160365 18.96015475 -9.44448535 15.16055313 -7.78198242 11.35888672 C-7.19007398 10.01015006 -6.59811718 8.66143462 -6.00610352 7.31274414 C-5.49112305 6.13542725 -4.97614258 4.95811035 -4.44555664 3.74511719 C-2.77398611 0.14154543 -2.77398611 0.14154543 0 0 Z " fill="#6255E5" transform="translate(2093.224853515625,173.886474609375)"/>
<path d="M0 0 C19.8 0 39.6 0 60 0 C60 78.54 60 157.08 60 238 C34.90647186 238 34.90647186 238 26.9163332 230.91861916 C26.40956641 230.36544706 25.90279963 229.81227497 25.38067627 229.24234009 C24.78660728 228.6086916 24.1925383 227.97504311 23.58046722 227.32219315 C22.96682564 226.66543972 22.35318405 226.00868629 21.72094727 225.33203125 C20.36291749 223.9674969 18.99976958 222.60804049 17.63200378 221.25326538 C13.9686253 217.59642953 10.38005237 213.87363268 6.80172467 210.13378525 C3.03735322 206.224642 -0.79323246 202.38146109 -4.61695862 198.53051758 C-11.83159024 191.24468286 -18.98563801 183.90230062 -26.11923605 176.53720188 C-35.77327755 166.576844 -45.51942989 156.70747604 -55.26051617 146.83237076 C-70.58285671 131.29440894 -85.77957376 115.63933705 -101 100 C-101.33 141.25 -101.66 182.5 -102 225 C-98.7 225 -95.4 225 -92 225 C-92 192 -92 159 -92 125 C-91.34 125 -90.68 125 -90 125 C-88.4140625 126.609375 -88.4140625 126.609375 -86.625 128.75 C-84.00539591 131.88557715 -84.00539591 131.88557715 -80.91265869 134.52593994 C-77.95513257 138.35155571 -78.47313732 142.0200359 -78.54589844 146.72558594 C-78.54531433 147.71128067 -78.54473022 148.6969754 -78.54412842 149.71253967 C-78.54691485 152.9701765 -78.5780341 156.22689804 -78.609375 159.484375 C-78.61683538 161.74309794 -78.62252927 164.00182736 -78.62652588 166.26055908 C-78.64179807 172.20536165 -78.68109403 178.14977328 -78.7253418 184.09442139 C-78.76626003 190.16055004 -78.78452956 196.22674187 -78.8046875 202.29296875 C-78.84758634 214.19548426 -78.91585723 226.09770962 -79 238 C-84.10863896 238.0246501 -89.21724359 238.04283607 -94.32592773 238.05493164 C-96.06519168 238.05997204 -97.80445136 238.0668043 -99.54370117 238.07543945 C-102.03825937 238.08751792 -104.53276173 238.09323108 -107.02734375 238.09765625 C-107.80963852 238.10281754 -108.59193329 238.10797882 -109.39793396 238.11329651 C-111.26567114 238.11349226 -113.13329204 238.06199694 -115 238 C-116 237 -116 237 -116.12304783 234.23761654 C-116.12212604 232.99227422 -116.12120424 231.7469319 -116.12025452 230.46385193 C-116.12153615 229.42738977 -116.12153615 229.42738977 -116.12284368 228.36998898 C-116.12450047 226.0375678 -116.1189739 223.70521737 -116.11352539 221.37280273 C-116.11324354 219.70765179 -116.11340122 218.04250072 -116.1139679 216.37734985 C-116.11425594 211.84241894 -116.10835816 207.30751424 -116.10139394 202.77258945 C-116.09516148 198.03866631 -116.09455669 193.30474264 -116.09336853 188.57081604 C-116.09025489 179.599979 -116.08204108 170.62915408 -116.07201904 161.65832239 C-116.0608589 151.44809608 -116.0553477 141.2378692 -116.05032361 131.02763832 C-116.03985849 110.01841877 -116.02225843 89.00921015 -116 68 C-115.01 67.505 -115.01 67.505 -114 67 C-111.0300754 69.15994516 -108.57015415 71.42866041 -106.23413086 74.23681641 C-100.94349308 80.343328 -95.14137406 85.9520825 -89.40735054 91.63724899 C-87.28269541 93.74437014 -85.16172725 95.85513982 -83.04173279 97.96694946 C-77.01947852 103.96485833 -70.99144502 109.95693519 -64.95922852 115.94482422 C-61.2576433 119.61971251 -57.56087446 123.29938824 -53.86707878 126.98210526 C-52.45947676 128.38348564 -51.04997849 129.78296396 -49.63858223 131.18052292 C-47.67583949 133.124167 -45.71922562 135.07378493 -43.76391602 137.02490234 C-43.17646606 137.6035907 -42.58901611 138.18227905 -41.98376465 138.77850342 C-38 142.77210077 -38 142.77210077 -38 145 C-37.01 145.33 -36.02 145.66 -35 146 C-35 146.66 -35 147.32 -35 148 C-34.01 148.33 -33.02 148.66 -32 149 C-32 149.66 -32 150.32 -32 151 C-31.39892426 151.26364853 -30.79784851 151.52729706 -30.17855835 151.79893494 C-27.87472155 153.0690675 -26.78298544 154.18346272 -25.14306641 156.21704102 C-19.38252372 163.01286444 -12.9903928 169.21612705 -6.7109375 175.52734375 C-6.02854633 176.21381044 -5.34615517 176.90027714 -4.64308548 177.60754585 C-1.04169395 181.22966919 2.56287137 184.84860037 6.16992188 188.46508789 C9.89180457 192.19810569 13.60184961 195.94266847 17.3094883 199.68982601 C20.16987296 202.57630284 23.03905776 205.45390824 25.91071701 208.32916451 C27.28321287 209.70653273 28.65232709 211.08727927 30.01796341 212.4714489 C31.92279482 214.40054887 33.83977931 216.31671504 35.76025391 218.23022461 C36.32037674 218.8031575 36.88049957 219.37609039 37.45759583 219.96638489 C40.83404076 223.29832861 42.12617554 224.02523511 47 225 C47 155.04 47 85.08 47 13 C35.78 13 24.56 13 13 13 C13 46.33 13 79.66 13 114 C11 114 11 114 9.4140625 112.42578125 C8.82367187 111.72839844 8.23328125 111.03101563 7.625 110.3125 C7.03976562 109.62800781 6.45453125 108.94351563 5.8515625 108.23828125 C5.24054688 107.49964844 4.62953125 106.76101563 4 106 C3.31117737 105.33176712 2.62235474 104.66353424 1.91265869 103.97505188 C-0.82865023 99.711073 -0.53121896 96.1288851 -0.45410156 91.16088867 C-0.45468567 90.17504791 -0.45526978 89.18920715 -0.45587158 88.17349243 C-0.45308921 84.92129062 -0.42198904 81.67001008 -0.390625 78.41796875 C-0.38316318 76.16067506 -0.37746997 73.90337488 -0.37347412 71.64607239 C-0.35821328 65.70950384 -0.31892706 59.77332773 -0.2746582 53.83691406 C-0.22651503 46.71172444 -0.20817368 39.58640349 -0.18484497 32.46109772 C-0.14607689 21.640459 -0.06942515 10.8206811 0 0 Z " fill="#6356E4" transform="translate(1603,174)"/>
<path d="M0 0 C11.88 0 23.76 0 36 0 C36 71.28 36 142.56 36 216 C31.38 216 26.76 216 22 216 C22 149.01 22 82.02 22 13 C19.03 13 16.06 13 13 13 C13 82.96 13 152.92 13 225 C49.63 225 86.26 225 124 225 C124 214.44 124 203.88 124 193 C105.52 193 87.04 193 68 193 C68 188.71 68 184.42 68 180 C90.77 180 113.54 180 137 180 C137 199.14 137 218.28 137 238 C91.79 238 46.58 238 0 238 C0 159.46 0 80.92 0 0 Z " fill="#6356E4" transform="translate(957,174)"/>
<path d="M0 0 C36.63 0 73.26 0 111 0 C109.27794228 4.30514431 107.34460092 8.36908417 105.21875 12.4765625 C104.8491214 13.19494293 104.4794928 13.91332336 104.09866333 14.6534729 C102.90144792 16.97852944 101.70085256 19.30182019 100.5 21.625 C99.67226571 23.23009291 98.8446293 24.83523631 98.01708984 26.44042969 C93.16550638 35.84398754 88.28322413 45.23048287 83.33203125 54.58203125 C81.13573055 58.73248367 78.9699384 62.89846122 76.80517578 67.06542969 C71.68709012 76.91318233 66.4967163 86.72032545 61.25 96.5 C60.92680786 97.1025058 60.60361572 97.7050116 60.27062988 98.32577515 C57.36834897 103.73514482 54.46214211 109.14238749 51.55078125 114.546875 C48.42383477 120.36303981 45.37229569 126.20937261 42.4375 132.125 C34.13096415 148.86596293 25.69709349 165.62284412 16.40869141 181.84326172 C12.64908199 188.45058996 9.4231521 195.15369579 6 202 C73.815 202.495 73.815 202.495 143 203 C143 192.44 143 181.88 143 171 C124.19 171 105.38 171 86 171 C87.91189888 161.44050558 87.91189888 161.44050558 92 158 C96.80687635 156.85787516 101.58218202 157.06835923 106.48828125 157.21875 C107.91599859 157.23368169 109.34375708 157.24506435 110.77153015 157.25305176 C114.51928012 157.28351614 118.26452691 157.36201932 122.0112915 157.45068359 C126.51208001 157.54713844 131.01370843 157.583682 135.5152359 157.63031006 C142.34522843 157.70774535 149.16973567 157.86104012 156 158 C156 177.14 156 196.28 156 216 C99.24 216 42.48 216 -16 216 C-13.74989259 209.24967777 -13.74989259 209.24967777 -12.09570312 206.0402832 C-11.72771606 205.3212532 -11.359729 204.60222321 -10.98059082 203.86140442 C-10.58480835 203.09889877 -10.18902588 202.33639313 -9.78125 201.55078125 C-9.36387573 200.73868698 -8.94650146 199.92659271 -8.51647949 199.08988953 C-7.18164053 196.4953498 -5.84082946 193.903948 -4.5 191.3125 C-3.62983561 189.62193659 -2.76004086 187.93118286 -1.890625 186.24023438 C3.28047936 176.1958893 8.51865051 166.18783092 13.78955078 156.19555664 C16.44385287 151.16241213 19.06631912 146.11294862 21.6875 141.0625 C25.4249806 133.8741964 29.21950006 126.72024375 33.0703125 119.59204102 C40.30254587 106.19890755 47.28112181 92.68891978 54.1875 79.125 C65.87160481 56.178194 65.87160481 56.178194 71.625 45.75 C77.59114 34.92769953 83.28366824 23.95630253 89 13 C63.92 13 38.84 13 13 13 C13 16.3 13 19.6 13 23 C32.8 23 52.6 23 73 23 C71 29 71 29 67 36 C44.89 36 22.78 36 0 36 C0 24.12 0 12.24 0 0 Z " fill="#6356E4" transform="translate(1745,196)"/>
<path d="M0 0 C3.08890806 3.65106908 4.8247234 7.71750571 6.73828125 12.05078125 C7.0955127 12.84870087 7.45274414 13.64662048 7.82080078 14.46871948 C8.98929532 17.08128797 10.15085066 19.69688165 11.3125 22.3125 C12.12535781 24.13280842 12.93875816 25.95287465 13.75268555 27.77270508 C15.39562739 31.44690493 17.03643979 35.12204401 18.67578125 38.79785156 C21.58282892 45.31098573 24.51967541 51.81050424 27.4616394 58.30792236 C32.61207348 69.68539214 37.73040718 81.07713028 42.83422852 92.47558594 C46.70015348 101.10707905 50.57846926 109.73293099 54.4621582 118.35644531 C55.98510614 121.73816885 57.50707871 125.12032843 59.02807617 128.50292969 C59.40611893 129.34366028 59.78416168 130.18439087 60.17366028 131.05059814 C60.94223088 132.75985562 61.71077529 134.46912487 62.47929382 136.17840576 C64.87224984 141.49870958 67.27188002 146.81595182 69.67575073 152.1313324 C71.26198405 155.64118689 72.84400849 159.15292822 74.4251709 162.66506958 C75.1777878 164.33426433 75.93223679 166.00263435 76.68859863 167.6701355 C77.73597527 169.97979446 78.77690258 172.29225803 79.81640625 174.60546875 C80.28068779 175.62299225 80.28068779 175.62299225 80.75434875 176.66107178 C82.33372354 180.19445864 83.22937951 183.14689754 84 187 C79.05 187 74.1 187 69 187 C68.09121094 184.94007813 67.18242187 182.88015625 66.24609375 180.7578125 C65.93058563 180.04268494 65.61507751 179.32755737 65.29000854 178.59075928 C63.65685025 174.8890419 62.02386018 171.18725042 60.39111328 167.48535156 C56.97084279 159.73106185 53.54874218 151.977594 50.12109375 144.2265625 C43.68658458 129.67153196 37.29849717 115.09881367 30.99267578 100.48754883 C26.31342875 89.66243181 21.51884125 78.88960959 16.71609497 68.11883545 C11.36912833 56.12465599 6.11134887 44.09685898 1 32 C-1.91838532 35.45224299 -3.537427 39.27821785 -5.22265625 43.421875 C-5.52410049 44.14987808 -5.82554474 44.87788116 -6.13612366 45.62794495 C-7.11687288 47.99981889 -8.0896558 50.3748742 -9.0625 52.75 C-9.74339798 54.40022311 -10.42487998 56.05020536 -11.10693359 57.69995117 C-12.46052715 60.97579025 -13.81138946 64.25273155 -15.15966797 67.53076172 C-17.4643077 73.13183118 -19.79215948 78.72312626 -22.125 84.3125 C-22.69142212 85.6722998 -22.69142212 85.6722998 -23.26928711 87.05957031 C-28.82096124 100.38358823 -34.41459698 113.69010345 -40 127 C-20.86 127 -1.72 127 18 127 C9.585 108.685 9.585 108.685 1 90 C-1.40265025 92.40265025 -2.11295487 94.46459743 -3.34765625 97.62890625 C-3.78787109 98.74587891 -4.22808594 99.86285156 -4.68164062 101.01367188 C-5.13732422 102.18478516 -5.59300781 103.35589844 -6.0625 104.5625 C-6.96780376 106.87718269 -7.87523913 109.19103321 -8.78515625 111.50390625 C-9.18613525 112.53330322 -9.58711426 113.5627002 -10.00024414 114.62329102 C-11 117 -11 117 -12 118 C-14.35313555 118.07271741 -16.70833668 118.08370868 -19.0625 118.0625 C-20.99802734 118.04896484 -20.99802734 118.04896484 -22.97265625 118.03515625 C-23.97167969 118.02355469 -24.97070312 118.01195312 -26 118 C-24.05042446 111.91500198 -21.86110936 105.98495296 -19.41796875 100.08203125 C-19.08130692 99.26232346 -18.74464508 98.44261566 -18.39778137 97.59806824 C-17.68902868 95.87396752 -16.97886045 94.15044809 -16.26733398 92.42749023 C-15.197903 89.83769252 -14.13273585 87.24617546 -13.06835938 84.65429688 C-9.12563559 75.06770898 -5.11950348 65.51205819 -1 56 C-0.01 56 0.98 56 2 56 C2.41773682 56.95140869 2.83547363 57.90281738 3.26586914 58.88305664 C4.85024285 62.49026245 6.43690009 66.09646033 8.02416992 69.70239258 C8.7044586 71.24867771 9.38416767 72.795218 10.06323242 74.34204102 C13.83801809 82.9393878 17.66693684 91.50332212 21.661026 100.00123596 C23.68286943 104.30507071 25.62234932 108.63158822 27.5 113 C30.16118267 119.16411317 32.95299561 125.25590265 35.8671875 131.3046875 C38 135.78654234 38 135.78654234 38 138 C5.33 138 -27.34 138 -61 138 C-57.62640786 127.87922358 -57.62640786 127.87922358 -55.4609375 123.11328125 C-54.97165771 122.02966309 -54.48237793 120.94604492 -53.97827148 119.82958984 C-53.44919189 118.6689502 -52.9201123 117.50831055 -52.375 116.3125 C-51.80686071 115.05703511 -51.23924921 113.80133126 -50.67211914 112.54541016 C-49.76111761 110.52830308 -48.84971599 108.51138428 -47.9367218 106.49517822 C-44.0753575 97.96779601 -40.2578486 89.42081381 -36.4375 80.875 C-35.70315119 79.23314258 -34.96877624 77.59129686 -34.234375 75.94946289 C-30.10652371 66.71989432 -25.98326072 57.4883088 -21.875 48.25 C-21.41496582 47.21552734 -20.95493164 46.18105469 -20.48095703 45.11523438 C-17.62777763 38.68991769 -14.79244875 32.25691002 -11.96484375 25.8203125 C-11.26907655 24.23794096 -10.57327586 22.65558415 -9.87744141 21.07324219 C-8.51894387 17.98392467 -7.16363518 14.89323408 -5.81005859 11.80175781 C-5.19249534 10.39643492 -4.57482497 8.99115909 -3.95703125 7.5859375 C-3.67222397 6.93319855 -3.38741669 6.28045959 -3.09397888 5.60794067 C-1.11363118 1.11363118 -1.11363118 1.11363118 0 0 Z " fill="#6255E5" transform="translate(2102,204)"/>
<path d="M0 0 C2.35961014 2.35961014 3.23026126 4.46544302 4.58203125 7.51953125 C5.09483643 8.67138916 5.6076416 9.82324707 6.13598633 11.01000977 C6.694868 12.27748721 7.25370458 13.54498453 7.8125 14.8125 C8.39754835 16.13034115 8.98308705 17.44796471 9.5690918 18.76538086 C10.78491312 21.49966181 11.99861759 24.23486805 13.2109375 26.97070312 C15.88989481 33.01096647 18.60366469 39.03559476 21.3125 45.0625 C24.83019946 52.89975895 28.33364444 60.74307091 31.8125 68.59765625 C38.78103286 84.32752319 45.81193357 100.02351663 52.99111938 115.65847778 C59.84883683 130.59950862 66.54782865 145.60954009 73.18676758 160.6489563 C74.85892787 164.43512653 76.5447143 168.21465155 78.24609375 171.98779297 C78.6169812 172.81331161 78.98786865 173.63883026 79.36999512 174.48936462 C80.08937567 176.08965867 80.81167788 177.68864332 81.53723145 179.28614807 C84 184.7756912 84 184.7756912 84 187 C79.05 187 74.1 187 69 187 C57.87859078 162.52613899 47.02389398 137.94604516 36.3605957 113.26928711 C30.38506952 99.44387397 24.33681597 85.65179122 18.25 71.875 C17.85575836 70.9821933 17.46151672 70.0893866 17.05532837 69.16952515 C11.42450359 56.42173285 5.73349981 43.70193348 0 31 C-3.3055705 38.8780689 -6.6097822 46.75670641 -9.91271973 54.63587952 C-11.68715262 58.86876109 -13.4619389 63.10149398 -15.23730469 67.33398438 C-17.18914806 71.98736712 -19.13993282 76.64119263 -21.09014893 81.29525757 C-21.8492175 83.10628901 -22.60860436 84.91718709 -23.36834717 86.72793579 C-28.9878352 100.12220996 -34.49990989 113.55533529 -40 127 C-20.86 127 -1.72 127 18 127 C14.37 119.41 10.74 111.82 7 104 C2.2890625 93.9453125 2.2890625 93.9453125 0 89 C-0.32798584 89.84296631 -0.65597168 90.68593262 -0.99389648 91.55444336 C-2.20875678 94.67310885 -3.4259576 97.79083914 -4.64477539 100.90795898 C-5.17241487 102.25882654 -5.69911087 103.61006301 -6.22485352 104.96166992 C-6.97947075 106.9011998 -7.73743968 108.83938995 -8.49609375 110.77734375 C-8.95169678 111.94515381 -9.4072998 113.11296387 -9.87670898 114.31616211 C-11 117 -11 117 -12 118 C-14.35313555 118.07271741 -16.70833668 118.08370868 -19.0625 118.0625 C-20.99802734 118.04896484 -20.99802734 118.04896484 -22.97265625 118.03515625 C-23.97167969 118.02355469 -24.97070312 118.01195312 -26 118 C-25.39365413 114.51061185 -24.48506109 111.44726474 -23.11401367 108.18481445 C-22.72658493 107.25647293 -22.33915619 106.32813141 -21.93998718 105.37165833 C-21.5202211 104.37889389 -21.10045502 103.38612946 -20.66796875 102.36328125 C-20.23494949 101.32866257 -19.80193024 100.29404388 -19.35578918 99.22807312 C-17.97070261 95.92104097 -16.57931445 92.61670553 -15.1875 89.3125 C-13.80772315 86.02560461 -12.42925105 82.73816563 -11.05134583 79.45048523 C-10.19456139 77.40743565 -9.33647535 75.36493124 -8.47685242 73.32307434 C-5.91979833 67.24040718 -3.42870426 61.13506018 -1 55 C-0.34 55 0.32 55 1 55 C8.20309034 70.39854311 15.31253607 85.83202325 22.23388672 101.359375 C26.3264442 110.53230556 30.50019461 119.66563318 34.75048828 128.76660156 C35.17958496 129.69311523 35.60868164 130.61962891 36.05078125 131.57421875 C36.42887939 132.38463623 36.80697754 133.19505371 37.1965332 134.0300293 C38 136 38 136 38 138 C5.33 138 -27.34 138 -61 138 C-60.14978482 133.74892411 -59.14840529 130.78735222 -57.375 126.90625 C-56.56893311 125.12855225 -56.56893311 125.12855225 -55.74658203 123.31494141 C-55.46155823 122.69242493 -55.17653442 122.06990845 -54.88287354 121.42852783 C-53.38787403 118.16288668 -51.90931813 114.88981381 -50.4296875 111.6171875 C-49.98639603 110.63823013 -49.98639603 110.63823013 -49.53414917 109.63949585 C-46.98642858 104.00078748 -44.53730945 98.32293056 -42.125 92.625 C-39.50030906 86.44405079 -36.79570704 80.32119425 -33.921875 74.25073242 C-30.90379889 67.85150966 -28.01532403 61.39523971 -25.125 54.9375 C-24.85703613 54.33909302 -24.58907227 53.74068604 -24.31298828 53.12414551 C-21.06593582 45.87210663 -17.82816117 38.61595073 -14.59506226 31.35768127 C-13.03311785 27.85203451 -11.46947881 24.34714478 -9.90570068 20.84231567 C-8.75975372 18.27187826 -7.61643751 15.70028084 -6.47314453 13.12866211 C-5.7686875 11.54925716 -5.0641039 9.96990866 -4.359375 8.390625 C-4.03393707 7.65660965 -3.70849915 6.9225943 -3.37319946 6.16633606 C-1.11378784 1.11378784 -1.11378784 1.11378784 0 0 Z " fill="#6255E5" transform="translate(1280,204)"/>
<path d="M0 0 C3.80937934 1.90468967 5.74532575 3.4972244 8.70507812 6.4621582 C9.63284058 7.38684402 10.56060303 8.31152985 11.51647949 9.26423645 C12.52158269 10.27623961 13.52650169 11.28842574 14.53125 12.30078125 C15.56933689 13.34006122 16.60779478 14.37897072 17.64660645 15.41752625 C19.82171763 17.59420017 21.99343317 19.77418724 24.16259766 21.95678711 C26.93480879 24.74595584 29.71352457 27.52852905 32.49460602 30.30885029 C34.63966913 32.45418623 36.78210899 34.60212581 38.9236908 36.75093651 C39.94690161 37.77731653 40.97070775 38.80310342 41.99513245 39.82827187 C43.43090717 41.26623058 44.8629866 42.70787608 46.29492188 44.1496582 C47.5159259 45.37637993 47.5159259 45.37637993 48.76159668 46.62788391 C51 49 51 49 53.14172363 51.68205261 C54.9369947 54.09680051 54.9369947 54.09680051 57.4375 55.9375 C60.41501379 58.33403549 62.58578299 61.04258417 65 64 C66.65267595 65.68266077 68.32119202 67.3436662 70 69 C71.46647216 70.46081259 72.93228369 71.92228849 74.3976593 73.38420105 C76.18086894 75.16133487 77.96408798 76.93845925 79.74731445 78.71557617 C89.67799945 88.61324569 99.60329313 98.51630734 109.52579975 108.42217541 C115.53118506 114.41721882 121.5384548 120.41035186 127.55004883 126.39916992 C132.803782 131.6330091 138.05402515 136.87031948 143.30005616 142.11187917 C146.07521919 144.88443082 148.85212725 147.65518332 151.63323402 150.42177391 C154.24357425 153.01859456 156.84924356 155.62000943 159.45132256 158.22510719 C160.8673281 159.64029596 162.28831485 161.05049508 163.70941162 162.46057129 C164.54360123 163.29751022 165.37779083 164.13444916 166.23725891 164.99674988 C166.96819921 165.72584659 167.6991395 166.45494329 168.4522295 167.20613384 C170 169 170 169 170 171 C170.61875 171.28875 171.2375 171.5775 171.875 171.875 C174 173 174 173 176 175 C176.22705078 176.97119141 176.22705078 176.97119141 176.1953125 179.3515625 C176.18564453 180.62773437 176.18564453 180.62773437 176.17578125 181.9296875 C176.15064453 183.26386719 176.15064453 183.26386719 176.125 184.625 C176.11597656 185.5221875 176.10695313 186.419375 176.09765625 187.34375 C176.0740497 189.56276586 176.0411231 191.78125077 176 194 C172.48316644 192.49634599 170.21776358 190.46566858 167.52612305 187.76904297 C166.64808517 186.89408173 165.7700473 186.01912048 164.86540222 185.11764526 C163.91399636 184.15933607 162.96277316 183.20084549 162.01171875 182.2421875 C161.02565957 181.25493461 160.03922867 180.26805286 159.05244446 179.28152466 C156.98407803 177.21159502 154.9191089 175.13835479 152.85668945 173.0625 C150.23271145 170.42163291 147.60230084 167.78729446 144.96948528 165.15524101 C142.92981483 163.11529634 140.89277889 161.07273752 138.85657692 159.02933121 C137.88886706 158.0584707 136.92057816 157.08818695 135.95166588 156.11852646 C127.48841004 147.64158643 127.48841004 147.64158643 123.6027832 143.09619141 C119.22206786 137.99996016 114.4250962 133.31381486 109.65846252 128.58329773 C107.93127324 126.86905414 106.2073868 125.15154698 104.48425293 123.43322754 C100.82566029 119.78597559 97.16313719 116.14268685 93.5 112.5 C89.24986631 108.2735937 85.00142938 104.04550978 80.75721741 99.81315613 C79.0716171 98.13396365 77.38299859 96.45784924 75.69421387 94.78186035 C74.64560166 93.73688582 73.59713249 92.69176772 72.54882812 91.64648438 C71.64394653 90.7468396 70.73906494 89.84719482 69.8067627 88.92028809 C66.41651495 85.39291468 63.22170598 81.68194969 60 78 C44.82 62.82 29.64 47.64 14 32 C13.67 96.68 13.34 161.36 13 228 C8.71 228 4.42 228 0 228 C0 152.76 0 77.52 0 0 Z " fill="#6355E4" transform="translate(1464,184)"/>
<path d="M0 0 C0.81726563 0.46921875 1.63453125 0.9384375 2.4765625 1.421875 C4.75873965 2.8415571 6.87890178 4.35071279 9 6 C9.61488281 6.47695313 10.22976563 6.95390625 10.86328125 7.4453125 C19.4741642 15.04427351 24.28877806 27.33362898 25.2109375 38.5703125 C25.70201883 51.8295083 21.40300291 64.0380815 12.9375 74.1875 C3.57338565 83.91644998 -6.88770971 87.19867403 -19.63500977 90.60424805 C-20.64104248 90.87406494 -21.6470752 91.14388184 -22.68359375 91.421875 C-24.03795532 91.77137207 -24.03795532 91.77137207 -25.41967773 92.12792969 C-29.66683928 93.56334089 -32.97064471 95.3888535 -35.47265625 99.16015625 C-35.89168213 99.78043701 -36.31070801 100.40071777 -36.74243164 101.03979492 C-37.39586548 102.04103394 -37.39586548 102.04103394 -38.0625 103.0625 C-38.52712646 103.75770752 -38.99175293 104.45291504 -39.47045898 105.16918945 C-40.46494078 106.65917442 -41.45512825 108.15203293 -42.44140625 109.64746094 C-44.04743859 112.07160374 -45.67703239 114.4784453 -47.3125 116.8828125 C-48.39626574 118.48408242 -49.47960919 120.08563826 -50.5625 121.6875 C-51.33122437 122.8178064 -51.33122437 122.8178064 -52.11547852 123.97094727 C-55.77950687 129.44017081 -58.29291811 133.6811578 -58.1875 140.4375 C-58.18105469 141.34371094 -58.17460937 142.24992188 -58.16796875 143.18359375 C-58.05406737 146.00624854 -58.05406737 146.00624854 -57.5078125 148.77734375 C-55.31588799 162.68763393 -56.36247509 176.18586573 -64.125 188.1875 C-70.85931396 197.09971975 -78.482049 203.20140768 -89 207 C-89.65355469 207.24492188 -90.30710938 207.48984375 -90.98046875 207.7421875 C-102.95929842 211.47120484 -115.71237387 208.97335834 -126.75390625 203.6796875 C-139.11669589 196.77162489 -145.6805335 186.79242618 -150.171875 173.54296875 C-152.93568243 161.7185662 -151.44686623 149.00198122 -145.5390625 138.37109375 C-144.1092055 136.16824299 -142.59887239 134.08204811 -141 132 C-140.4225 131.13375 -139.845 130.2675 -139.25 129.375 C-129.38607367 118.96307776 -115.95069837 115.23240807 -102.41015625 112.08984375 C-93.9044398 109.371522 -90.38269354 103.79283516 -85.6875 96.625 C-85.03249512 95.63927002 -84.37749023 94.65354004 -83.70263672 93.63793945 C-82.39612335 91.66785907 -81.09425865 89.69468685 -79.79736328 87.71826172 C-78.24733011 85.37405235 -76.66640928 83.05861127 -75.05859375 80.75390625 C-67.47345712 69.76084903 -67.6191878 63.62815373 -69.5078125 50.640625 C-71.36834731 36.87857389 -68.44176034 23.63663432 -60.0625 12.40234375 C-45.4143203 -4.94005472 -20.38446386 -11.91707118 0 0 Z M-47.6875 11.6875 C-54.84314351 18.84314351 -60.59540037 28.22930711 -61.1328125 38.55078125 C-61.12894531 39.91783203 -61.12894531 39.91783203 -61.125 41.3125 C-61.12757813 42.21613281 -61.13015625 43.11976563 -61.1328125 44.05078125 C-61.04631311 47.06926954 -61.04631311 47.06926954 -60.515625 50.3046875 C-59.93068404 54.49676438 -59.70441763 58.58531596 -59.625 62.8125 C-59.56892578 63.9272168 -59.56892578 63.9272168 -59.51171875 65.06445312 C-59.35269275 75.3216304 -65.63762016 83.35334683 -71.3125 91.4375 C-71.88500488 92.26080811 -72.45750977 93.08411621 -73.04736328 93.93237305 C-74.1804519 95.55780994 -75.31672995 97.18102921 -76.45654297 98.80175781 C-77.77567638 100.68051093 -79.08028796 102.56799762 -80.37890625 104.4609375 C-88.43656444 115.97187777 -95.75590097 119.28527114 -109 123 C-121.10283596 126.52766993 -131.00037938 131.23372753 -137.44140625 142.52734375 C-142.33981018 152.0310847 -143.61193622 161.57588234 -141.31640625 172.1484375 C-137.90364446 182.25927533 -131.10261201 191.13861291 -121.62890625 196.2890625 C-111.90215969 200.72918654 -101.43533185 201.85023073 -91.125 198.375 C-81.04510306 194.13937713 -72.0519342 186.28467511 -67.5625 176.1875 C-64.2994232 166.77533624 -64.95882306 158.07279197 -66.50390625 148.38671875 C-68.69755399 133.41118657 -63.34156373 123.81619974 -55.02001953 111.77709961 C-53.7549941 109.94473386 -52.50744291 108.10138573 -51.26171875 106.25585938 C-42.77906525 93.78925619 -36.57543589 85.76596633 -21.7109375 81.8671875 C-8.9017208 78.50277108 3.20188031 74.56072928 10.46875 62.578125 C15.80773986 52.33471423 17.86532494 42.17219594 14.875 30.8125 C11.63268091 21.35826115 4.90488504 12.33345949 -4.0625 7.6875 C-19.66999441 0.69103699 -33.33596427 2.67607059 -47.6875 11.6875 Z " fill="#6255E4" transform="translate(268,327)"/>
<path d="M0 0 C10.92858454 7.32729634 17.05696483 16.96247658 20.1875 29.625 C22.99073718 44.39405529 19.47590808 56.74576141 11.31640625 69.1171875 C8.60022736 72.77052753 5.54744419 76.01677774 2.328125 79.23046875 C-2.53150019 85.45568629 -3.12279303 91.68585109 -2.8671875 99.28125 C-2.84786163 100.16099487 -2.82853577 101.04073975 -2.80862427 101.94714355 C-2.76398731 103.79618407 -2.7114476 105.64504919 -2.65136719 107.49365234 C-2.56275906 110.30428258 -2.50618146 113.11427992 -2.453125 115.92578125 C-2.40556071 117.73182228 -2.35614327 119.53781565 -2.3046875 121.34375 C-2.28888641 122.17418823 -2.27308533 123.00462646 -2.25680542 123.86022949 C-1.99607134 130.88713333 -0.57912469 137.42852629 4.4375 142.6875 C5.04722656 143.35007813 5.65695312 144.01265625 6.28515625 144.6953125 C7.70283284 146.17581483 9.12794462 147.64921709 10.55859375 149.1171875 C21.63271631 160.80757658 25.96506146 173.01693455 25.5625 188.90234375 C24.71540088 202.15150339 17.87144985 212.89081347 8.3125 221.8125 C-3.38640564 230.43274626 -16.3502744 233.40908603 -30.7109375 231.38671875 C-42.63787194 228.83541912 -53.16033247 222.45621761 -60.6875 212.8125 C-68.39372061 200.10137913 -70.79021655 186.94304747 -68.03515625 172.359375 C-64.92356027 162.15654526 -59.00554093 153.72024424 -51.58203125 146.17578125 C-46.01750202 139.23446129 -45.11252644 133.33449357 -45.375 124.5625 C-45.39264404 123.51779541 -45.41028809 122.47309082 -45.4284668 121.39672852 C-45.49168988 118.20093488 -45.58724304 115.00732204 -45.6875 111.8125 C-45.70973633 110.83845215 -45.73197266 109.8644043 -45.75488281 108.86083984 C-45.81768263 106.15622962 -45.90307813 103.45358317 -46 100.75 C-46.02215576 99.94852539 -46.04431152 99.14705078 -46.06713867 98.32128906 C-46.42301294 90.80714387 -48.69857037 85.37953969 -53.9375 79.875 C-54.73285156 79.01777344 -55.52820313 78.16054687 -56.34765625 77.27734375 C-57.76535974 75.78390318 -59.18836848 74.29544183 -60.62109375 72.81640625 C-70.30146555 62.44611931 -74.27376754 50.26294212 -73.99609375 36.28125 C-73.049302 25.63883138 -69.57670931 16.93243048 -62.6875 8.8125 C-62.09066406 8.09320313 -61.49382812 7.37390625 -60.87890625 6.6328125 C-45.00738345 -10.85555981 -19.24212641 -11.28801413 0 0 Z M-51.9375 10.0625 C-60.14570058 18.27070058 -64.80589577 28.17357093 -65.1875 39.8125 C-64.77421048 52.40405398 -59.59376338 61.11743143 -50.75 69.6875 C-40.01935881 80.19158255 -37.46881978 89.56105718 -37.0625 104.1875 C-37.02672852 105.33275146 -36.99095703 106.47800293 -36.95410156 107.65795898 C-36.85455986 111.04261389 -36.77025031 114.42739956 -36.6875 117.8125 C-36.65881836 118.74239746 -36.63013672 119.67229492 -36.60058594 120.63037109 C-36.18078656 134.60862772 -37.47532255 142.95529086 -46.6875 153.8125 C-55.87816599 164.82072307 -61.29607319 173.84389393 -60.53515625 188.80859375 C-58.99929873 199.12077998 -54.17461095 208.36439088 -46 214.875 C-36.56255262 221.70658505 -27.20162243 223.58970326 -15.6875 222.8125 C-5.35502292 221.04036004 3.8484212 215.02927678 10.3125 206.8125 C16.70754742 196.09334021 18.23659679 184.67157665 15.58203125 172.44921875 C12.69619096 164.58348077 7.42211758 159.11269544 1.68164062 153.24853516 C-0.41359406 151.05092987 -2.33690924 148.73145303 -4.25 146.375 C-4.87003906 145.61316406 -5.49007812 144.85132813 -6.12890625 144.06640625 C-11.05094824 136.94856608 -10.82943581 128.21444893 -11.109375 119.8515625 C-11.13727112 119.02095306 -11.16516724 118.19034363 -11.19390869 117.33456421 C-11.24994131 115.58835076 -11.30359803 113.84205959 -11.35498047 112.09570312 C-11.4098898 110.32690797 -11.47203796 108.55832236 -11.54150391 106.79003906 C-12.44031009 83.88113064 -12.44031009 83.88113064 -4.9375 74.1875 C-4.23625 73.27097656 -3.535 72.35445313 -2.8125 71.41015625 C-0.91153734 69.08636917 1.04474816 66.84713619 3.0625 64.625 C9.88281535 56.9968113 12.87607191 47.77394825 12.625 37.58984375 C11.22182075 25.11908816 5.88896601 16.19982378 -3.64453125 8.34765625 C-18.81270471 -3.05022553 -37.16591201 -0.16398399 -51.9375 10.0625 Z " fill="#6255E4" transform="translate(318.6875,7.1875)"/>
<path d="M0 0 C1.36737393 1.00307357 2.72300704 2.02248718 4.0625 3.0625 C5.114375 3.825625 6.16625 4.58875 7.25 5.375 C15.34488056 13.11010809 20.56613392 24.00272909 22.0625 35.0625 C22.10794223 37.30162378 22.10225377 39.54217034 22.0546875 41.78125 C22.02955078 43.67423828 22.02955078 43.67423828 22.00390625 45.60546875 C21.95963302 48.24363222 21.90754832 50.88167615 21.84765625 53.51953125 C21.83347656 54.78152344 21.81929688 56.04351562 21.8046875 57.34375 C21.7826123 58.48908203 21.76053711 59.63441406 21.73779297 60.81445312 C22.2744311 66.18244843 24.85529312 70.07474977 28.13671875 74.234375 C28.7181665 74.9766333 29.29961426 75.7188916 29.89868164 76.48364258 C30.5096167 77.25216553 31.12055176 78.02068848 31.75 78.8125 C32.37704834 79.60873779 33.00409668 80.40497559 33.65014648 81.2253418 C34.89097423 82.79910975 36.13414977 84.37102999 37.37988281 85.94091797 C38.7886537 87.71721208 40.18983273 89.49891193 41.5859375 91.28515625 C49.29752913 101.07976401 54.40880678 104.69033167 66.75 106.9375 C81.66605018 109.83241772 94.12650092 114.99193418 103.0625 128.0625 C109.90489592 139.84133198 112.65349152 152.42751632 109.96875 165.921875 C105.95843762 179.81968171 98.04978581 189.95349168 85.4375 197.0625 C73.80393149 202.81164723 62.03986507 204.03453643 49.3125 200.5 C36.51690829 195.99958968 26.06190659 187.87576739 20.125 175.5 C15.35555126 164.54223427 15.95875219 153.91898702 16.4921875 142.16601562 C16.68730048 133.35489074 15.52675203 128.00961884 10.0625 121.0625 C9.53978516 120.37309326 9.01707031 119.68368652 8.47851562 118.97338867 C6.92346703 116.98468343 5.31883409 115.05145349 3.6875 113.125 C-0.84736315 107.69524177 -5.04051788 102.25779415 -8.86328125 96.296875 C-14.18338869 90.56598714 -21.38787266 89.30711519 -28.8125 88.0625 C-44.63082174 85.11737731 -56.19863702 79.39496089 -65.9375 66.0625 C-72.59129318 54.52813264 -74.67202454 42.04558632 -71.75 29.0625 C-68.04795572 15.67686769 -60.95643657 5.69534763 -48.91015625 -1.4296875 C-33.2541297 -9.37085208 -15.0065811 -9.69540381 0 0 Z M-55.1875 15.4375 C-62.50815755 24.46896339 -64.85007601 34.58170509 -63.9375 46.0625 C-62.25926669 56.25395317 -56.91208822 65.13603783 -48.8125 71.5 C-40.6115434 76.97475305 -31.68055774 78.76979273 -22.125 80.5625 C-4.79605939 83.95719503 2.72129929 96.59810753 12.6640625 110.16748047 C13.92558398 111.87696541 15.20649493 113.56857694 16.5 115.25390625 C17.20125 116.18074219 17.9025 117.10757813 18.625 118.0625 C19.22441406 118.84625 19.82382812 119.63 20.44140625 120.4375 C26.02813303 129.48395878 25.29686844 138.19213792 24.92553711 148.42749023 C24.50044757 161.15427503 26.24831544 171.41999448 35.0625 181.0625 C42.78233592 189.06685076 52.09855761 193.15834808 63.125 193.375 C74.38589539 193.38728461 82.9256506 189.83382687 91.0625 182.0625 C98.45204589 174.12863488 102.50710719 163.79162635 102.33203125 152.96875 C101.28202803 141.6469762 96.41183681 131.83462437 88 124.1875 C79.88437952 118.220132 69.96591092 116.37033616 60.25 114.5625 C54.4860118 113.47989334 50.12266747 111.98182738 45.0625 109.0625 C43.5775 108.5675 43.5775 108.5675 42.0625 108.0625 C41.05664062 106.24194336 41.05664062 106.24194336 40.0625 104.0625 C39.12635775 102.74828731 38.1547734 101.45887157 37.15625 100.19140625 C36.58173096 99.45841309 36.00721191 98.72541992 35.4152832 97.97021484 C34.80386475 97.19629395 34.19244629 96.42237305 33.5625 95.625 C32.93754639 94.82529785 32.31259277 94.0255957 31.66870117 93.20166016 C28.80699383 89.54016954 25.93078496 85.89175199 23.01953125 82.26953125 C22.56835938 81.70097412 22.1171875 81.13241699 21.65234375 80.54663086 C20.4591321 79.04348522 19.25534499 77.54875143 18.05078125 76.0546875 C11.73804283 66.55457428 12.8638496 57.51191842 13.26757812 46.47851562 C13.51888661 34.34828394 11.6846671 23.10283225 3.0625 14.0625 C-4.94148212 5.83853528 -13.55990271 1.97477957 -25 1.75 C-37.41883317 1.72287477 -46.87804612 6.34061657 -55.1875 15.4375 Z " fill="#6256E5" transform="translate(384.9375,324.9375)"/>
<path d="M0 0 C7.34190892 5.70785191 12.03025347 13.01527609 16.66796875 20.94921875 C22.18843132 29.90257402 28.83585718 32.75295639 38.68359375 35.54296875 C39.43016235 35.75926941 40.17673096 35.97557007 40.94592285 36.19842529 C42.51115044 36.649274 44.07753798 37.09611378 45.64501953 37.5390625 C48.02530757 38.21426616 50.39927828 38.90906179 52.7734375 39.60546875 C54.30564782 40.04416417 55.8381897 40.48170358 57.37109375 40.91796875 C58.07028931 41.12415833 58.76948486 41.3303479 59.48986816 41.54278564 C65.86945412 43.31480816 72.08318336 44.18470195 78.2265625 41.1015625 C79.03697998 40.71025146 79.84739746 40.31894043 80.68237305 39.91577148 C81.51808838 39.49884033 82.35380371 39.08190918 83.21484375 38.65234375 C98.34439021 31.48747349 111.26769112 28.68684133 127.52734375 33.96484375 C139.41567756 38.55332347 147.78398035 46.64178792 153.52734375 57.96484375 C158.89361905 70.42793876 159.26596495 83.15856733 154.7890625 95.9609375 C149.47784964 108.60589939 141.93315894 116.23238139 129.52734375 121.96484375 C116.32204853 127.20212905 103.38035838 127.45756896 90.12109375 121.96875 C87.78514123 120.78021078 85.67925604 119.46082556 83.52734375 117.96484375 C82.77324219 117.44148438 82.01914063 116.918125 81.2421875 116.37890625 C73.98485638 110.59664243 69.45126652 103.21186729 64.70043945 95.328125 C64.14573975 94.43867188 63.59104004 93.54921875 63.01953125 92.6328125 C62.29805908 91.43047974 62.29805908 91.43047974 61.56201172 90.20385742 C56.90769587 85.08209948 49.89511318 83.23339702 43.40625 81.38671875 C42.66205307 81.17041809 41.91785614 80.95411743 41.15110779 80.73126221 C39.59009076 80.28037424 38.02789882 79.83353549 36.46459961 79.390625 C34.09499169 78.71630869 31.73221339 78.02104428 29.36914062 77.32421875 C27.84021197 76.88543368 26.31092585 76.44789184 24.78125 76.01171875 C24.08721573 75.80552917 23.39318146 75.5993396 22.67811584 75.38690186 C15.88253129 73.49911824 9.00719434 72.70556911 2.484375 75.86328125 C1.2149707 76.45882812 1.2149707 76.45882812 -0.08007812 77.06640625 C-0.93150391 77.48664063 -1.78292969 77.906875 -2.66015625 78.33984375 C-15.96194155 84.69767989 -29.991855 88.369101 -44.59765625 83.33984375 C-46.24603127 82.59807499 -47.87309194 81.8067197 -49.47265625 80.96484375 C-50.31828125 80.55234375 -51.16390625 80.13984375 -52.03515625 79.71484375 C-63.74851538 73.42962665 -71.40543099 62.83392503 -75.31640625 50.25 C-78.04165709 38.04015907 -76.30572944 25.27047356 -70.015625 14.4609375 C-68.56851851 12.23715613 -67.05028937 10.09724896 -65.47265625 7.96484375 C-64.60640625 6.66546875 -64.60640625 6.66546875 -63.72265625 5.33984375 C-46.5719897 -12.76363761 -19.95465463 -13.54168098 0 0 Z M-58.22265625 12.84375 C-65.08247328 21.33277357 -68.60756225 32.0793369 -67.47265625 42.96484375 C-65.72808414 51.10950325 -63.24860346 57.89236354 -57.47265625 63.96484375 C-56.81265625 64.66480469 -56.15265625 65.36476563 -55.47265625 66.0859375 C-47.57550326 73.7715596 -38.70302745 76.59626193 -27.79296875 77.125 C-18.27839378 76.66606168 -9.80866743 72.31710717 -1.34375 68.29296875 C9.20580525 63.41290238 17.65766594 64.94220131 28.46484375 68.15234375 C29.56352783 68.47114502 30.66221191 68.78994629 31.79418945 69.1184082 C34.00527178 69.76101258 36.21517814 70.40767848 38.42382812 71.05859375 C41.1865157 71.86531939 43.95464823 72.64232366 46.73046875 73.40234375 C48.22529847 73.81887387 49.72009305 74.23553014 51.21484375 74.65234375 C52.20955688 74.91857544 52.20955688 74.91857544 53.22436523 75.19018555 C64.7971719 78.49691675 70.23216596 87.15741103 76.19262695 96.81396484 C82.23804007 106.5240453 89.32293944 111.95209286 99.96484375 116.40234375 C111.67862089 118.25188751 122.93099715 117.18914732 132.83984375 110.21484375 C140.65395341 103.73286921 146.57615567 96.12196301 148.52734375 85.96484375 C149.45229607 73.21263223 147.8558655 62.99058244 139.44140625 52.96484375 C132.8419461 46.0690813 124.19721404 40.75422092 114.52734375 39.96484375 C113.81191406 39.90167969 113.09648437 39.83851563 112.359375 39.7734375 C101.40571787 39.23359112 92.11896908 44.08909701 82.421875 48.6328125 C70.04157086 54.33009146 58.61777897 50.47604693 46.18334961 46.83666992 C43.83748625 46.15165534 41.48673649 45.48596845 39.13476562 44.82226562 C37.61555816 44.38525062 36.09666624 43.94713688 34.578125 43.5078125 C33.88834061 43.3128569 33.19855621 43.11790131 32.48786926 42.91703796 C27.5277228 41.44920079 23.09390751 39.37624479 18.52734375 36.96484375 C17.81285568 36.6331871 17.09836761 36.30153046 16.36222839 35.95982361 C13.98282914 34.66957665 13.56860094 33.42455112 12.52734375 30.96484375 C3.83828056 16.18617313 -3.67332762 5.56461996 -20.47265625 -0.03515625 C-35.5770106 -1.09176819 -47.49389946 1.32470532 -58.22265625 12.84375 Z " fill="#6255E5" transform="translate(96.47265625,183.03515625)"/>
<path d="M0 0 C9.59094031 8.80977775 15.48288913 20.43675555 16.55078125 33.44921875 C17.05165346 46.97276831 12.36381214 60.23286886 3.15625 70.2578125 C-7.28915082 79.58005194 -19.81162153 84.27679755 -33.68359375 84.08984375 C-40.23271027 83.62573313 -46.36598901 81.8838308 -52.40234375 79.34375 C-53.04719727 79.07256348 -53.69205078 78.80137695 -54.35644531 78.52197266 C-56.18904003 77.73279706 -58.00715156 76.91023619 -59.82421875 76.0859375 C-67.58472012 73.19595946 -75.26436414 74.91123611 -82.73828125 77.765625 C-83.55335144 78.06451126 -84.36842163 78.36339752 -85.20819092 78.67134094 C-86.91514556 79.30162174 -88.61918808 79.93984218 -90.3203125 80.58569336 C-92.91044217 81.56651452 -95.51048659 82.51626382 -98.11328125 83.46289062 C-99.78062272 84.0828235 -101.44731377 84.70450916 -103.11328125 85.328125 C-103.88214661 85.60855148 -104.65101196 85.88897797 -105.44317627 86.17790222 C-112.13746205 88.75161963 -117.111463 92.00189175 -120.51171875 98.56640625 C-120.970625 99.43007813 -121.42953125 100.29375 -121.90234375 101.18359375 C-122.35867188 102.07304687 -122.815 102.9625 -123.28515625 103.87890625 C-130.74856356 118.18377026 -139.95777267 126.81852537 -155.66015625 131.87890625 C-169.44230121 134.69634995 -182.73978972 132.38084039 -194.66015625 124.87890625 C-204.57711845 117.62731377 -211.4468654 107.90890401 -214.22265625 95.8515625 C-216.12952961 82.89503903 -214.76966688 70.61409268 -207.41015625 59.56640625 C-206.19075986 57.97990737 -204.94115008 56.41609884 -203.66015625 54.87890625 C-203.08652344 54.16992188 -202.51289063 53.4609375 -201.921875 52.73046875 C-194.14841576 44.04150575 -182.27154675 38.53520223 -170.66015625 37.87890625 C-159.59447672 37.64900986 -149.45188091 41.39074958 -139.41015625 45.69140625 C-130.1189371 48.63362565 -121.82352647 46.46969056 -112.91015625 43.25390625 C-111.86682129 42.8885376 -110.82348633 42.52316895 -109.74853516 42.14672852 C-107.66996138 41.41268897 -105.59447711 40.66983145 -103.52246094 39.91748047 C-101.01567254 39.00790372 -98.50069342 38.12917268 -95.98046875 37.2578125 C-94.66424869 36.78040917 -93.34904055 36.30020086 -92.03515625 35.81640625 C-90.92914063 35.41292969 -89.823125 35.00945312 -88.68359375 34.59375 C-81.72201855 30.64525968 -78.44117185 23.97972454 -74.91015625 17.06640625 C-67.9345726 4.10893059 -59.46295633 -3.78359609 -45.66015625 -9.12109375 C-29.50823993 -13.72119252 -13.14754368 -10.48328373 0 0 Z M-61.34765625 11.87890625 C-64.64822053 16.47442876 -67.15153084 21.47545103 -69.75073242 26.4855957 C-76.87089684 40.06482806 -87.32876271 43.29582369 -101.14306641 48.25268555 C-103.42025565 49.0700312 -105.6946653 49.89476378 -107.96875 50.72070312 C-109.42302171 51.24652368 -110.87744357 51.77192915 -112.33203125 52.296875 C-113.00812439 52.54165085 -113.68421753 52.7864267 -114.38079834 53.03862 C-127.40824691 57.70429081 -136.90415177 55.87100113 -149.66015625 50.87890625 C-157.03427405 48.27382852 -163.78726273 45.94235386 -171.66015625 46.87890625 C-172.37429688 46.96140625 -173.0884375 47.04390625 -173.82421875 47.12890625 C-183.92832954 48.84267769 -192.21944811 54.25015948 -198.7109375 62.05859375 C-205.2871959 71.57374118 -206.98950851 81.48623313 -205.66015625 92.87890625 C-203.1979272 103.8420155 -196.73483173 112.38993685 -187.66015625 118.87890625 C-177.89466314 124.18798817 -167.47355166 125.50628848 -156.546875 123.23046875 C-141.91194191 118.3866578 -134.8712586 107.49400141 -127.90625 94.60180664 C-127.54402344 93.93656982 -127.18179688 93.27133301 -126.80859375 92.5859375 C-126.49067871 91.99272705 -126.17276367 91.3995166 -125.84521484 90.78833008 C-119.02843752 79.80480816 -106.06431861 76.68906604 -94.41015625 72.62890625 C-93.19585937 72.19578125 -91.9815625 71.76265625 -90.73046875 71.31640625 C-73.08242935 65.08768646 -64.10310468 65.19970668 -46.55078125 72.1015625 C-35.83078364 76.05775209 -26.13121799 76.17658754 -15.3828125 72.140625 C-4.16478271 66.94202583 2.26385728 57.87647108 6.58984375 46.62890625 C9.04574629 34.34939357 6.7384603 23.69105129 0.0703125 13.203125 C-6.06691152 4.96012659 -14.43583888 0.08955229 -24.453125 -1.8046875 C-38.25771391 -3.78375246 -52.32694641 1.06221798 -61.34765625 11.87890625 Z " fill="#6256E5" transform="translate(558.66015625,170.12109375)"/>
<path d="M0 0 C48.84 0 97.68 0 148 0 C146.50345237 4.48964288 145.03227995 8.12620055 142.875 12.26171875 C142.57223145 12.84496414 142.26946289 13.42820953 141.95751953 14.02912903 C140.97588746 15.91747865 139.98804101 17.80249705 139 19.6875 C138.31214696 21.00762861 137.62464993 22.32794277 136.9375 23.6484375 C132.93105029 31.34012529 128.8971421 39.01748014 124.84521484 46.68530273 C121.06327626 53.85185261 117.34367221 61.05049452 113.625 68.25 C109.03648111 77.1331981 104.44023506 86.01213971 99.8125 94.875 C99.32563721 95.80747559 98.83877441 96.73995117 98.3371582 97.70068359 C95.95582199 102.25977543 93.57216154 106.81764683 91.1875 111.375 C84.82908686 123.53504373 78.5312101 135.7252768 72.25485229 147.92779541 C67.79780426 156.59149965 63.32171961 165.24330644 58.76098633 173.85302734 C56.20197309 178.69234401 53.67762273 183.54898665 51.16796875 188.4140625 C50.83025452 189.06850342 50.49254028 189.72294434 50.14459229 190.3972168 C48.45647051 193.66951122 46.77052775 196.94290642 45.08740234 200.21777344 C44.46586949 201.42385347 43.84428956 202.62990924 43.22265625 203.8359375 C42.67359619 204.90376465 42.12453613 205.9715918 41.55883789 207.07177734 C41.04442139 208.03809082 40.53000488 209.0044043 40 210 C39.5167627 210.94206299 39.03352539 211.88412598 38.53564453 212.85473633 C38.02888184 213.56267334 37.52211914 214.27061035 37 215 C34.05906948 215.37859559 31.72355042 215.47775614 28.8125 215.3125 C27.68811523 215.27866211 27.68811523 215.27866211 26.54101562 215.24414062 C24.6931553 215.18529157 22.84632333 215.09560938 21 215 C25.52137961 205.1123365 30.22974784 195.38740249 35.5 185.875 C40.72447964 176.44472002 45.70595367 166.90427713 50.625 157.3125 C51.36895589 155.86286307 52.11293362 154.41323735 52.85693359 152.96362305 C53.93556806 150.86176763 55.01415498 148.75988804 56.09243774 146.65785217 C61.40179756 136.31259327 66.82623165 126.03076852 72.33984375 115.79296875 C73.58101435 113.48713265 74.82188974 111.18113763 76.0625 108.875 C76.37669891 108.29114532 76.69089783 107.70729065 77.01461792 107.10574341 C82.73269124 96.46978884 88.27258048 85.74705046 93.77618408 74.99887085 C98.66952143 65.44757222 103.68229524 55.97938392 108.87548828 46.58666992 C112.70633032 39.62679396 116.2953733 32.56128668 119.79272461 25.4284668 C120.17178955 24.65672119 120.55085449 23.88497559 120.94140625 23.08984375 C121.26826416 22.41816162 121.59512207 21.74647949 121.93188477 21.05444336 C123.18402898 18.64603341 124.60342085 16.32763191 126 14 C84.42 13.67 42.84 13.34 0 13 C0 8.71 0 4.42 0 0 Z " fill="#6356E4" transform="translate(1745,174)"/>
<path d="M0 0 C15.77694881 -1.88211398 15.77694881 -1.88211398 21.70513916 2.0824585 C25.31329435 4.98673395 28.43225084 8.34777255 31.5703125 11.7421875 C32.75142312 12.95186698 33.93647252 14.15771188 35.12521362 15.3598938 C38.21502236 18.50656988 41.24615476 21.70425455 44.26831055 24.91577148 C47.37026098 28.18903279 50.53062341 31.40491253 53.68359375 34.62890625 C58.25970474 39.33142807 62.82287958 44.04582747 67.32861328 48.81591797 C68.23362579 49.77078094 69.13863831 50.72564392 70.07107544 51.70944214 C72 54 72 54 72 56 C72.66 56 73.32 56 74 56 C75.26513672 57.28637695 75.26513672 57.28637695 76.8046875 59.17578125 C81.6532193 64.87149604 86.96403472 70.07575245 92.26751709 75.34268188 C94.16271893 77.22496176 96.05464053 79.11048618 97.94580078 80.99682617 C101.96104704 85.00072039 105.98022013 89.00065806 110 93 C114.66315461 97.63944554 119.32462555 102.28055741 123.98187256 106.92593384 C125.83367034 108.77131359 127.68848449 110.61362294 129.54345703 112.45581055 C134.7639534 117.65385107 139.92808716 122.83898463 144.69252014 128.46643066 C146.50100877 130.58764323 148.44996211 132.5473312 150.4375 134.5 C151.11683594 135.1703125 151.79617188 135.840625 152.49609375 136.53125 C152.99238281 137.0159375 153.48867187 137.500625 154 138 C154.93750832 135.18747503 155.12178778 133.5102927 155.11352539 130.60401917 C155.1134549 129.70536133 155.1133844 128.80670349 155.11331177 127.8808136 C155.10814545 126.89735458 155.10297913 125.91389557 155.09765625 124.90063477 C155.09619598 123.86298981 155.09473572 122.82534485 155.0932312 121.7562561 C155.08942229 119.50053496 155.08330266 117.24481682 155.07516479 114.98910713 C155.06242872 111.42143786 155.05589255 107.85380566 155.05102539 104.28611755 C155.03763575 95.42436822 155.01343533 86.56265407 154.98962402 77.70092773 C154.96991937 70.21600991 154.95426711 62.73110512 154.94406128 55.24616814 C154.93756652 51.72744795 154.92505758 48.2087812 154.91235352 44.69007874 C154.9087214 42.53630622 154.90536962 40.38253321 154.90234375 38.22875977 C154.89717743 37.24732498 154.89201111 36.2658902 154.88668823 35.25471497 C154.88661774 34.3532373 154.88654724 33.45175964 154.88647461 32.52296448 C154.884254 31.74149331 154.88203339 30.96002214 154.87974548 30.15487003 C155 28 155 28 156 24 C160.29 24 164.58 24 169 24 C169 72.51 169 121.02 169 171 C165.18884012 169.09442006 163.20484314 167.46226566 160.234375 164.5 C159.34492187 163.613125 158.45546875 162.72625 157.5390625 161.8125 C156.61867188 160.884375 155.69828125 159.95625 154.75 159 C153.81414062 158.071875 152.87828125 157.14375 151.9140625 156.1875 C151.02976562 155.300625 150.14546875 154.41375 149.234375 153.5 C148.42194336 152.6853125 147.60951172 151.870625 146.77246094 151.03125 C145 149 145 149 145 147 C144.01 146.67 143.02 146.34 142 146 C140.57815552 144.55815125 140.57815552 144.55815125 139.02783203 142.65893555 C134.18136839 136.95242136 128.8574863 131.73304185 123.5546875 126.45703125 C122.45543754 125.3596517 121.3564121 124.26204721 120.25759888 123.16423035 C117.38484665 120.29526623 114.50910632 117.42931618 111.63269043 114.56402588 C108.71034142 111.6519261 105.790833 108.73698159 102.87109375 105.82226562 C97.73376504 100.69446319 92.59398 95.56913445 87.45236206 90.44563293 C86.64308258 89.63857407 85.8338031 88.8315152 85 88 C83.60637741 86.66874336 83.60637741 86.66874336 82.18460083 85.31059265 C80 83 80 83 80 81 C79.34 81 78.68 81 78 81 C76.66812134 79.64811707 76.66812134 79.64811707 75.07666016 77.70776367 C70.2756144 72.06690986 65.02028168 66.89555149 59.7734375 61.67578125 C58.69660772 60.60082202 57.62000256 59.52563774 56.54360962 58.45024109 C53.73004144 55.64046017 50.91348549 52.83369356 48.09625244 50.02758789 C45.23422609 47.17581169 42.37504098 44.32119002 39.515625 41.46679688 C34.48413188 36.44482856 29.45018272 31.42533404 24.41439819 26.40766907 C23.61764679 25.61313828 22.82089539 24.81860748 22 24 C21.11768707 23.12252609 20.23537415 22.24505219 19.32632446 21.34098816 C17.02418378 19.02433622 14.84989503 16.63452473 12.6875 14.1875 C9.07322066 10.13659631 5.33215355 6.27306104 1.43359375 2.49609375 C0 1 0 1 0 0 Z " fill="#6255E4" transform="translate(1471,174)"/>
<path d="M0 0 C7.34657614 -0.07456318 14.69292839 -0.12879734 22.03979492 -0.16479492 C24.5352767 -0.17981335 27.0307324 -0.20023414 29.52612305 -0.22631836 C33.12815825 -0.26300775 36.72984224 -0.27979647 40.33203125 -0.29296875 C41.43456741 -0.30845261 42.53710358 -0.32393646 43.67304993 -0.33988953 C58.02926216 -0.34295763 69.23828115 3.77253274 79.671875 13.58203125 C90.70132305 25.03711237 93.87540186 39.86751805 94.3125 55.375 C94.02244028 69.51967713 90.57326331 83.95016799 80.6015625 94.484375 C80.07304688 94.98453125 79.54453125 95.4846875 79 96 C78.45085937 96.52078125 77.90171875 97.0415625 77.3359375 97.578125 C64.87004566 108.08130195 47.14502828 109.33408807 31.578125 109.1953125 C29.94496338 109.19229126 29.94496338 109.19229126 28.27880859 109.18920898 C24.26916196 109.17886187 20.25957607 109.1509408 16.25 109.125 C2.76125 109.063125 2.76125 109.063125 -11 109 C-11 137.05 -11 165.1 -11 194 C-14.96 194 -18.92 194 -23 194 C-23 161.66 -23 129.32 -23 96 C11.3125 95.6875 11.3125 95.6875 22.08325195 95.61206055 C25.31370587 95.57542825 25.31370587 95.57542825 28.54411316 95.5349884 C29.96524686 95.51900648 31.38645092 95.50860588 32.80766296 95.50288391 C46.13421319 95.44220562 60.13466217 94.03235102 70.5546875 84.72265625 C79.12773135 74.5045148 80.6378261 61.76120567 79.72900391 48.94042969 C78.6457943 37.57355005 74.91584363 28.60448343 66.625 20.75 C60.24982315 16.4998821 54.48694632 13.92574909 46.77246094 13.79467773 C45.73168396 13.77473251 44.69090698 13.75478729 43.61859131 13.73423767 C42.50179993 13.71752518 41.38500854 13.70081268 40.234375 13.68359375 C39.08584045 13.66281265 37.93730591 13.64203156 36.75396729 13.62062073 C33.08603889 13.55525007 29.41803907 13.49629806 25.75 13.4375 C23.26301346 13.39430293 20.77603413 13.35068825 18.2890625 13.30664062 C12.19278148 13.19958138 6.09642864 13.09827853 0 13 C0 8.71 0 4.42 0 0 Z " fill="#6356E4" transform="translate(766,198)"/>
<path d="M0 0 C10.17379293 7.88900045 14.20202208 17.5897272 17.125 29.84375 C19.29970109 38.30955067 21.92142181 41.90356995 29.3125 46.4375 C31.27175758 47.76947484 33.23004776 49.10287347 35.1875 50.4375 C36.20328125 51.0975 37.2190625 51.7575 38.265625 52.4375 C40.26322052 53.74874219 42.23391387 55.1021264 44.171875 56.5 C51.77970232 61.82977733 56.7060069 62.26809157 65.6875 60.9375 C77.12195866 59.36033329 87.76281349 60.1412195 97.5625 66.625 C107.32160245 74.04872294 113.34324827 83.13972387 115.3125 95.4375 C116.49457258 107.28095796 112.79318755 118.28350076 105.3125 127.4375 C96.69138576 136.04414929 87.58324154 139.90121083 75.48046875 140.46875 C64.27191767 140.35818476 54.25782019 136.13431014 46.1171875 128.40234375 C39.27368399 120.95151633 36.90006253 112.48603932 34.57958984 102.83740234 C33.18462272 97.33899912 31.89350039 94.10230031 27.3125 90.4375 C26.54292969 89.81488281 25.77335937 89.19226563 24.98046875 88.55078125 C19.38256159 84.48678881 13.66891017 80.68001917 7.8125 77 C7.11793701 76.56276611 6.42337402 76.12553223 5.70776367 75.67504883 C-0.49576204 71.82744659 -5.78883011 70.39311353 -12.99609375 71.9296875 C-24.27597431 74.05796685 -35.62130766 72.81839233 -45.375 66.6875 C-54.63591415 60.02356178 -61.05110954 51.96063329 -63.40234375 40.546875 C-64.84321494 29.88837581 -63.29590213 18.96224906 -56.875 10.0625 C-55.83554402 8.83428709 -54.77297865 7.62523389 -53.6875 6.4375 C-53.17445313 5.82261719 -52.66140625 5.20773437 -52.1328125 4.57421875 C-39.17337761 -9.90438435 -15.42661099 -10.34711713 0 0 Z M-46.76171875 11.515625 C-52.86282325 18.83183417 -55.34074864 26.15865091 -55.03515625 35.671875 C-53.95440754 44.26929172 -49.50245646 52.29188726 -42.9453125 57.9375 C-35.07487413 63.42394666 -26.10587228 64.96579477 -16.7421875 63.78515625 C-13.01592868 63.36106797 -9.30864163 63.15899153 -5.5625 63.0625 C-4.28117187 63.01351562 -2.99984375 62.96453125 -1.6796875 62.9140625 C3.3923755 63.23204836 7.12163771 65.74445796 11.3125 68.4375 C12.19615234 69.00001465 13.07980469 69.5625293 13.99023438 70.14208984 C16.85083755 71.99849173 19.67746514 73.89878678 22.5 75.8125 C23.93762695 76.76382813 23.93762695 76.76382813 25.40429688 77.734375 C32.50533993 82.54365088 38.75122983 87.27342416 41.5 95.6875 C41.81582031 96.62851563 42.13164062 97.56953125 42.45703125 98.5390625 C43.29095075 101.3644884 43.99390217 104.19990551 44.6875 107.0625 C46.91591652 115.46099451 51.90237012 122.76713078 59.3125 127.4375 C66.98282734 131.22546166 74.58734397 133.09991568 82.94921875 130.671875 C91.86451138 127.31364818 99.25367939 122.59290443 103.578125 113.890625 C107.32259808 104.55581182 107.53206512 96.5566905 103.76953125 87.18359375 C98.89221932 77.99123373 92.02712324 72.67570775 82.3125 69.4375 C75.21781688 69.13446077 68.32824712 69.33699065 61.3125 70.4375 C49.83464917 71.57032327 42.21330162 65.99227797 33.08105469 59.63964844 C31.13304687 58.31551943 29.15241879 57.05172801 27.1640625 55.7890625 C14.5845436 47.69834623 10.96900656 41.35209669 7.25292969 27.04199219 C4.87802972 18.21091002 0.98622626 11.70378273 -6.6875 6.4375 C-20.33303998 -1.05865325 -35.50015446 0.23285249 -46.76171875 11.515625 Z " fill="#6255E5" transform="translate(418.6875,10.5625)"/>
<path d="M0 0 C8.10900668 5.96507865 16.187865 14.89261732 18.0625 25.125 C19.11651456 39.98367749 17.10849252 50.13239639 7.609375 61.9296875 C3.38222091 66.56247759 -1.71099255 69.72805318 -7.05078125 72.9296875 C-12.87141949 76.47324089 -15.00159449 79.58810837 -16.9453125 86.0625 C-17.46544922 87.77566406 -17.46544922 87.77566406 -17.99609375 89.5234375 C-18.34800781 90.71195312 -18.69992187 91.90046875 -19.0625 93.125 C-19.42214844 94.31351562 -19.78179688 95.50203125 -20.15234375 96.7265625 C-24.33137998 110.59407597 -25.33119346 118.37588184 -18.87133789 131.70361328 C-14.02456451 141.74141277 -13.65826024 151.73330561 -16.90625 162.39453125 C-20.57991852 172.12140359 -26.66039135 179.91457039 -36.0078125 184.6953125 C-47.67590123 189.71230397 -57.53415463 190.60318819 -69.69140625 186.5078125 C-80.28133544 181.99657912 -87.89698444 174.56340415 -92.25 163.9140625 C-96.19837017 152.15120969 -95.86814695 141.85557158 -90.71875 130.41796875 C-86.526709 122.83736128 -80.82310725 117.37209887 -73.38671875 112.98046875 C-72.45569336 112.4227478 -72.45569336 112.4227478 -71.50585938 111.85375977 C-70.28998685 111.14023956 -69.05853482 110.45236188 -67.81054688 109.79663086 C-62.22420641 106.55495101 -60.82362323 102.09471169 -58.9375 96.125 C-58.62063232 95.15868652 -58.30376465 94.19237305 -57.97729492 93.19677734 C-57.00382458 90.14266553 -56.0890356 87.07605494 -55.1875 84 C-54.87167969 82.96746094 -54.55585937 81.93492187 -54.23046875 80.87109375 C-51.25497205 70.75955734 -51.21702893 64.42981245 -55.875 54.875 C-56.61598407 53.30856736 -57.35436357 51.74089939 -58.08984375 50.171875 C-58.41976318 49.48963867 -58.74968262 48.80740234 -59.08959961 48.10449219 C-62.60824764 39.88992316 -62.13894056 28.48704199 -59.3125 20.125 C-54.82013806 9.63235044 -47.24204548 1.74291273 -36.75 -2.75 C-24.56775841 -7.57180467 -11.2589789 -7.26869187 0 0 Z M-45.62890625 14.234375 C-51.65878958 22.89415925 -52.88675251 30.64849363 -51.9375 41.125 C-50.98079592 44.68058579 -49.57401413 47.83532921 -47.9375 51.125 C-47.20202147 52.747153 -46.47263542 54.37208505 -45.75 56 C-45.42644531 56.69867188 -45.10289062 57.39734375 -44.76953125 58.1171875 C-41.80909656 65.26114727 -42.6454016 72.13413638 -44.765625 79.40625 C-44.95590271 80.06403442 -45.14618042 80.72181885 -45.34222412 81.39953613 C-45.74398039 82.77910257 -46.1509663 84.15715606 -46.56298828 85.53369141 C-47.18489994 87.61629316 -47.78696276 89.70389241 -48.38671875 91.79296875 C-50.36570304 98.57747926 -52.56894135 104.88235002 -55.9375 111.125 C-55.9375 111.785 -55.9375 112.445 -55.9375 113.125 C-56.45828125 113.37121094 -56.9790625 113.61742187 -57.515625 113.87109375 C-68.74429772 119.6846485 -79.48955247 126.4314976 -84.4375 138.5625 C-87.38789791 148.03275043 -86.49990152 156.29662418 -81.9375 165.125 C-76.63779583 173.00128845 -69.33113919 178.26103623 -59.9375 180.125 C-51.45542329 181.04729355 -43.85403285 179.32626578 -36.67578125 174.65234375 C-30.70088661 169.83828578 -25.28924804 162.83877958 -23.9375 155.125 C-23.0710043 145.43729394 -25.18056948 138.85754108 -29.31640625 130.2578125 C-29.76886719 129.26523437 -30.22132813 128.27265625 -30.6875 127.25 C-31.11546875 126.36570312 -31.5434375 125.48140625 -31.984375 124.5703125 C-34.74813595 114.57999627 -32.33081537 105.11583637 -29.421875 95.46948242 C-28.8119535 93.43567769 -28.23669118 91.39418743 -27.6640625 89.34960938 C-24.87242668 79.67561295 -21.77919882 70.58641826 -12.5625 65.4375 C-11.61246094 64.87417969 -10.66242188 64.31085938 -9.68359375 63.73046875 C-8.77738281 63.20066406 -7.87117187 62.67085937 -6.9375 62.125 C1.3630156 56.84285371 7.32961651 49.64284793 9.58203125 39.87109375 C10.71469719 30.94568615 9.27380362 22.63395501 3.9375 15.25 C-2.05709157 8.28160347 -9.2275927 3.78873117 -18.46484375 2.875 C-28.71724862 2.41486402 -39.07323949 6.05871669 -45.62890625 14.234375 Z " fill="#6255E5" transform="translate(581.9375,267.875)"/>
<path d="M0 0 C9.54014237 6.45021772 15.52391612 14.95514128 18.01953125 26.26953125 C19.24272694 38.63878564 17.72879864 49.61278931 9.640625 59.49609375 C3.57829225 66.1281397 -3.43599407 70.42137302 -11.98046875 73.26953125 C-13.95283619 73.306199 -15.92654887 73.28342238 -17.8984375 73.2265625 C-19.07083984 73.20529297 -20.24324219 73.18402344 -21.45117188 73.16210938 C-23.90979657 73.10913848 -26.3681958 73.04422378 -28.82617188 72.96679688 C-40.16276607 72.7994442 -45.92626864 75.99519157 -54.41796875 83.08203125 C-55.72330862 84.15443715 -57.02929609 85.22605529 -58.3359375 86.296875 C-58.95903809 86.80976074 -59.58213867 87.32264648 -60.22412109 87.85107422 C-63.14382532 90.20907833 -66.18556718 92.40338014 -69.24609375 94.57421875 C-73.83796407 99.06266856 -74.70550755 104.98444887 -75.85546875 111.01953125 C-78.50840838 123.78277483 -83.16688547 133.49139707 -94.10546875 141.01953125 C-103.27515171 146.56370098 -113.56125434 148.843304 -124.07421875 146.61328125 C-135.82181433 143.42935347 -144.46565012 137.63086514 -150.98046875 127.26953125 C-156.58959103 116.76952796 -157.58135536 106.11352175 -154.41796875 94.58203125 C-152.3356188 88.45229688 -149.43496448 83.9320926 -144.98046875 79.26953125 C-144.17802734 78.42455078 -144.17802734 78.42455078 -143.359375 77.5625 C-137.39682136 71.91451754 -128.56925331 67.3719998 -120.25073242 67.21948242 C-119.2269751 67.25017822 -118.20321777 67.28087402 -117.1484375 67.3125 C-116.01986328 67.33376953 -114.89128906 67.35503906 -113.72851562 67.37695312 C-111.36623675 67.43008172 -109.00419308 67.49507156 -106.64257812 67.57226562 C-99.88916009 67.6760461 -95.32689431 67.5039885 -89.98046875 63.26953125 C-89.28719482 62.75962646 -88.5939209 62.24972168 -87.87963867 61.72436523 C-85.54862242 59.98492412 -83.26235901 58.19783715 -80.98046875 56.39453125 C-80.2121875 55.79511719 -79.44390625 55.19570312 -78.65234375 54.578125 C-76.41536736 52.82430508 -74.19656647 51.04962158 -71.98046875 49.26953125 C-70.96098145 48.47542847 -70.96098145 48.47542847 -69.92089844 47.6652832 C-66.36185915 44.79960497 -64.17822557 42.85247565 -63.23046875 38.20703125 C-63.01648438 37.25957031 -62.8025 36.31210937 -62.58203125 35.3359375 C-62.28425781 33.81806641 -62.28425781 33.81806641 -61.98046875 32.26953125 C-59.25239643 18.77359699 -54.96688379 7.92693819 -43.328125 -0.33984375 C-29.68816639 -8.4194199 -13.54529408 -7.8644368 0 0 Z M-46.98046875 15.26953125 C-51.43828824 22.07597175 -53.00130947 29.82003616 -54.37426758 37.72412109 C-56.26936315 47.74215985 -61.44910349 53.27863561 -69.48046875 59.20703125 C-70.27275879 59.80604248 -71.06504883 60.40505371 -71.88134766 61.0222168 C-74.23453251 62.79007363 -76.60302507 64.53447509 -78.98046875 66.26953125 C-79.65432617 66.76291992 -80.32818359 67.25630859 -81.02246094 67.76464844 C-93.05701888 76.51196034 -93.05701888 76.51196034 -101.63671875 76.19140625 C-102.74273437 76.165625 -103.84875 76.13984375 -104.98828125 76.11328125 C-107.28565683 76.05160674 -109.582668 75.97392301 -111.87890625 75.87890625 C-121.26622165 75.70546855 -129.41772553 77.59949866 -136.85546875 83.58203125 C-137.55671875 84.46890625 -138.25796875 85.35578125 -138.98046875 86.26953125 C-139.49222656 86.87925781 -140.00398438 87.48898438 -140.53125 88.1171875 C-146.75652318 95.82820607 -147.96511944 103.51027185 -146.98046875 113.26953125 C-144.8242562 122.24299065 -139.59283636 129.11110947 -131.91796875 134.14453125 C-124.20507865 138.51615026 -116.84480441 139.54403611 -108.140625 137.65234375 C-99.47648149 134.90606544 -92.68883293 129.86444378 -88.16796875 121.89453125 C-85.70770899 116.46847891 -84.57199505 110.699966 -83.4987793 104.86572266 C-81.75335458 95.78553595 -78.62206609 89.98351097 -71.16796875 84.45703125 C-70.19077881 83.70607178 -70.19077881 83.70607178 -69.19384766 82.93994141 C-67.13479891 81.36641961 -65.05889426 79.81733613 -62.98046875 78.26953125 C-61.59865166 77.22175849 -60.21713763 76.17358592 -58.8359375 75.125 C-57.5104141 74.12977725 -56.18363392 73.1362257 -54.85546875 72.14453125 C-53.93350708 71.45266724 -53.93350708 71.45266724 -52.99291992 70.74682617 C-47.6743131 66.8482749 -43.81709229 64.97510207 -37.19140625 65.21484375 C-35.53044922 65.25158203 -35.53044922 65.25158203 -33.8359375 65.2890625 C-31.53878869 65.35867307 -29.24187559 65.43662584 -26.9453125 65.5234375 C-16.1337273 65.73591952 -7.55313372 63.60914901 0.37109375 55.9921875 C6.70079116 49.37750371 10.0044564 42.48026756 10.01953125 33.26953125 C9.23650461 24.22913274 5.92309318 16.68646174 -0.73046875 10.45703125 C-7.98841893 4.64526482 -14.35653142 2.54579466 -23.70703125 2.89453125 C-33.27636723 3.99077976 -40.76166881 7.86978748 -46.98046875 15.26953125 Z " fill="#6255E5" transform="translate(213.98046875,13.73046875)"/>
<path d="M0 0 C9.49374999 7.80467791 15.29878651 16.95638969 16.6875 29.375 C17.18677621 41.38883377 13.33112678 52.66664493 5.125 61.625 C-4.28636791 70.31102164 -14.96827621 72.78413072 -27.3984375 72.51953125 C-37.92918789 71.78259233 -45.15464655 66.62111653 -53.25 60.25 C-54.76798021 59.10038958 -56.28850306 57.95412226 -57.8125 56.8125 C-58.43253906 56.33941406 -59.05257812 55.86632812 -59.69140625 55.37890625 C-62.66112909 53.22790399 -64.61549897 53.12166679 -68.23828125 53.1171875 C-69.24890625 53.11493164 -70.25953125 53.11267578 -71.30078125 53.11035156 C-72.37714844 53.11518555 -73.45351563 53.12001953 -74.5625 53.125 C-76.19832031 53.13225098 -76.19832031 53.13225098 -77.8671875 53.13964844 C-95.5716294 52.44416049 -95.5716294 52.44416049 -110.46484375 60.4921875 C-111.65787109 61.76449219 -111.65787109 61.76449219 -112.875 63.0625 C-120.81369606 71.16933789 -128.82132113 75.4594598 -140.11694336 75.97607422 C-152.87431746 76.08674277 -162.86022696 73.5372095 -172.27734375 64.49609375 C-180.62380765 54.99269426 -183.3165721 44.72561127 -183.25 32.25 C-181.98869249 21.16948131 -176.91272059 12.02176783 -168.4375 4.8125 C-158.24696801 -2.7682616 -147.36383292 -4.87993147 -134.9375 -3.125 C-125.03302038 -1.14136803 -117.82256038 4.11074876 -110.83203125 11.19921875 C-103.34150793 17.14857539 -95.53732177 16.59953224 -86.4140625 16.21386719 C-84.25531059 16.12521808 -82.09738883 16.06864045 -79.9375 16.015625 C-67.88409741 15.70738852 -67.88409741 15.70738852 -57.59765625 9.98046875 C-56.84355469 9.14128906 -56.08945312 8.30210937 -55.3125 7.4375 C-40.53017857 -8.06811544 -18.38670056 -12.81815696 0 0 Z M-45.25 10.25 C-47.00124089 12.00900693 -48.72794585 13.78968711 -50.453125 15.57421875 C-61.60592356 25.97541567 -76.61367645 24.459754 -90.9375 24.625 C-92.17822266 24.66238281 -93.41894531 24.69976563 -94.69726562 24.73828125 C-104.29652281 24.82975114 -110.644964 22.9502525 -118.1328125 16.93359375 C-118.87273437 16.19238281 -119.61265625 15.45117188 -120.375 14.6875 C-128.14424345 7.34580925 -135.50731211 4.83902544 -146.08984375 4.98046875 C-155.21685249 5.75891573 -162.32955667 10.40704183 -168.25 17.25 C-173.12227787 24.99447987 -175.1451296 32.13246569 -174.25 41.25 C-172.05344093 50.79047642 -167.36693928 57.74502464 -159.1875 63.125 C-151.34907075 67.5593114 -143.63892264 68.43979936 -134.75390625 66.78515625 C-127.899895 64.77765555 -122.74541256 60.74541256 -117.75 55.75 C-109.11299978 47.11299978 -101.72565537 44.97837961 -89.6875 44.625 C-88.07766235 44.57134277 -88.07766235 44.57134277 -86.43530273 44.51660156 C-84.31866968 44.44928984 -82.20188228 44.38663738 -80.08496094 44.32910156 C-77.75603826 44.26411957 -75.42941015 44.18010031 -73.1015625 44.0859375 C-61.51140317 43.78310673 -55.0254351 46.88238871 -46.25 54.25 C-38.96455875 60.0973467 -31.89533485 64.50304119 -22.25 64.25 C-11.75841047 62.61406916 -3.9506957 58.56081433 2.75 50.25 C7.11575387 42.583631 9.2880514 34.27916148 7.06640625 25.5703125 C3.89413529 16.06666258 -0.50093398 9.32885547 -9.41796875 4.44921875 C-22.13027247 -0.93378434 -35.14250288 0.8031236 -45.25 10.25 Z " fill="#6255E5" transform="translate(389.25,506.75)"/>
<path d="M0 0 C9.20197996 6.4647961 16.51306369 15.52053597 18.68359375 26.71484375 C19.47323872 37.48508338 17.90418214 45.99351678 13.75 55.953125 C10.64774194 63.59744511 11.24033535 69.4670045 13.9140625 77.1015625 C14.14636063 77.76646194 14.37865875 78.43136139 14.61799622 79.1164093 C15.10863456 80.50926471 15.60559991 81.89990642 16.10864258 83.28833008 C16.87066407 85.40115239 17.60330977 87.52264705 18.33398438 89.64648438 C18.81727751 91.00712718 19.30224748 92.36717579 19.7890625 93.7265625 C20.22371826 94.94819092 20.65837402 96.16981934 21.10620117 97.4284668 C23.41488821 102.23843989 26.63657628 105.48680545 31.390625 107.890625 C32.05594238 108.23907471 32.72125977 108.58752441 33.40673828 108.9465332 C34.09622559 109.30320068 34.78571289 109.65986816 35.49609375 110.02734375 C47.49420984 116.56350941 53.77450448 124.05041589 58.53125 137.02734375 C61.21209405 146.68548392 59.44292312 156.89066362 55.328125 165.85546875 C50.90414843 173.54751352 44.71107976 179.86540601 36.68359375 183.71484375 C36.03261719 184.03195312 35.38164063 184.3490625 34.7109375 184.67578125 C25.58290901 188.39523959 14.18028505 188.01380141 4.9609375 184.76171875 C-5.52844682 179.93984054 -13.65155385 171.933412 -18.36328125 161.3671875 C-22.73098469 148.69672704 -19.99089834 137.7268719 -15.31640625 125.71484375 C-14.74019531 124.53921875 -14.74019531 124.53921875 -14.15234375 123.33984375 C-11.32224492 114.45280443 -14.70347016 106.40107762 -17.74145508 98.06591797 C-18.50479721 95.96238855 -19.23693603 93.84972195 -19.96679688 91.734375 C-20.44999496 90.37825355 -20.93496116 89.02276051 -21.421875 87.66796875 C-21.85653076 86.45270508 -22.29118652 85.23744141 -22.73901367 83.98535156 C-25.05284102 79.18794695 -28.27714407 75.9389607 -33.0234375 73.5390625 C-33.68875488 73.19061279 -34.35407227 72.84216309 -35.03955078 72.4831543 C-35.72903809 72.12648682 -36.41852539 71.76981934 -37.12890625 71.40234375 C-48.78489514 65.05255736 -55.52788931 57.66458174 -59.95703125 44.86328125 C-61.61242704 34.96689335 -61.32277294 24.53483772 -56.31640625 15.71484375 C-55.91550781 14.94914062 -55.51460937 14.1834375 -55.1015625 13.39453125 C-49.39365143 3.63317609 -40.02852084 -1.75466654 -29.43359375 -4.83203125 C-19.45086662 -6.96855588 -8.85900232 -4.91502827 0 0 Z M-46.31640625 15.71484375 C-48.06968754 18.27771386 -49.27279039 20.79615983 -50.31640625 23.71484375 C-50.55101562 24.34003906 -50.785625 24.96523438 -51.02734375 25.609375 C-53.57764064 33.74051637 -52.21840746 41.41694275 -48.69140625 49.02734375 C-43.74995424 58.00970278 -36.98895952 61.72444311 -28.09033203 66.29370117 C-18.71325944 71.26618631 -15.6968426 78.79187448 -12.15625 88.44042969 C-11.25278087 90.88715016 -10.31525158 93.31959343 -9.37890625 95.75390625 C-3.9245103 110.21247066 -2.59196568 119.1623982 -8.90625 133.4296875 C-12.34736687 141.44625062 -12.76390191 150.68069296 -9.81640625 158.96484375 C-6.48085218 166.17621769 -1.07386093 172.82644776 6.35546875 176 C15.82465232 178.90748422 24.19530242 179.74139428 33.24609375 175.51953125 C42.29274976 170.59233467 46.81029058 164.14505975 49.98828125 154.4375 C52.30811873 145.35364201 49.89630031 137.53787438 45.43359375 129.44921875 C41.60869859 123.75534072 36.62982688 120.91061662 30.68359375 117.71484375 C28.90498667 116.72873648 27.13390428 115.72891955 25.37109375 114.71484375 C24.59121094 114.28171875 23.81132813 113.84859375 23.0078125 113.40234375 C17.14427744 109.14512165 14.63881607 104.02060362 12.24609375 97.40234375 C11.95532959 96.62052734 11.66456543 95.83871094 11.36499023 95.03320312 C10.7626753 93.40611966 10.1657846 91.77701839 9.57421875 90.14599609 C8.71078573 87.7890701 7.8114453 85.44900417 6.90234375 83.109375 C6.34906489 81.64498239 5.79693408 80.18015537 5.24609375 78.71484375 C4.98707275 78.05830811 4.72805176 77.40177246 4.46118164 76.7253418 C1.13706563 67.6202537 2.41284159 60.15682436 6.18359375 51.46484375 C10.14691017 41.5109917 11.74249514 32.80696443 8.12109375 22.33984375 C4.16032609 13.90590142 -1.78768837 8.38802539 -10.31640625 4.71484375 C-24.06618581 0.27392116 -37.06325111 5.34525476 -46.31640625 15.71484375 Z " fill="#6255E5" transform="translate(60.31640625,280.28515625)"/>
<path d="M0 0 C4.95 0 9.9 0 15 0 C13.45606577 4.63180268 11.88287031 8.41778897 9.65625 12.69921875 C9.33110413 13.32721878 9.00595825 13.95521881 8.67095947 14.60224915 C7.61819858 16.63289312 6.55922967 18.66022393 5.5 20.6875 C4.76692315 22.09813613 4.03417783 23.5089446 3.30175781 24.91992188 C-1.29662104 33.77005848 -5.92640665 42.60378582 -10.5859375 51.421875 C-13.36717068 56.68841631 -16.12152597 61.96890562 -18.875 67.25 C-19.37660645 68.21196289 -19.87821289 69.17392578 -20.39501953 70.16503906 C-21.93028618 73.10988376 -23.46520666 76.0549086 -25 79 C-31.05187929 90.61285836 -37.10970767 102.22219239 -43.21582031 113.80664062 C-47.99387122 122.8769676 -52.72963045 131.96932903 -57.46777344 141.06054688 C-60.47201012 146.82393273 -63.4789865 152.58589004 -66.48632812 158.34765625 C-69.06433824 163.28743449 -71.6397262 168.22855406 -74.2109375 173.171875 C-74.74074219 174.18958984 -75.27054688 175.20730469 -75.81640625 176.25585938 C-76.81727646 178.17858372 -77.81734574 180.10172533 -78.81640625 182.02539062 C-82.1345662 188.39681541 -85.55848008 194.69054682 -89 201 C-68.54 201.33 -48.08 201.66 -27 202 C-27 206.29 -27 210.58 -27 215 C-55.05 215 -83.1 215 -112 215 C-109.36 209.72 -106.72 204.44 -104 199 C-101.94767066 194.86991441 -101.94767066 194.86991441 -99.89550781 190.73974609 C-93.36515179 177.62130993 -86.58478376 164.65159925 -79.63671875 151.75 C-78.40330243 149.45851814 -77.170241 147.16684523 -75.9375 144.875 C-75.46801437 144.00220901 -75.46801437 144.00220901 -74.98904419 143.11178589 C-68.48662409 131.01111303 -62.19789233 118.80383514 -55.92584229 106.58261108 C-55.57906433 105.90695099 -55.23228638 105.23129089 -54.875 104.53515625 C-54.53482849 103.87230621 -54.19465698 103.20945618 -53.84417725 102.52651978 C-50.40628191 95.83339426 -46.90383542 89.17519656 -43.38671875 82.5234375 C-40.56934813 77.19366322 -37.785545 71.84645636 -35 66.5 C-30.95018641 58.72903101 -26.88334021 50.96741624 -22.7956543 43.21630859 C-19.447706 36.86303633 -16.12902212 30.49472186 -12.8125 24.125 C-8.6055141 16.04734637 -4.34729841 8.00298117 0 0 Z " fill="#6356E5" transform="translate(1904,174)"/>
<path d="M0 0 C4.29 0 8.58 0 13 0 C13 66.66 13 133.32 13 202 C31.15 202 49.3 202 68 202 C68 206.62 68 211.24 68 216 C45.56 216 23.12 216 0 216 C0 144.72 0 73.44 0 0 Z " fill="#6356E4" transform="translate(1003,174)"/>
</svg>
